<svg xmlns="http://www.w3.org/2000/svg" width="218.537" height="49.926" viewBox="0 0 218.537 49.926"><defs><style>.a{fill:#f6494d;}.b{fill:#fff;}.c{fill:#201e20;font-size:26px;font-family:Montserrat-Bold, Montserrat;font-weight:700;}</style></defs><g transform="translate(-0.05 -19)"><g transform="translate(0.05 20.642)"><g transform="translate(0 0)"><path class="a" d="M24.142,0A24.142,24.142,0,1,1,0,24.142,24.142,24.142,0,0,1,24.142,0Z" transform="translate(0 0)"/><g transform="translate(3.385 3.385)"><path class="b" d="M58.28,59.115A20.757,20.757,0,1,0,79.037,79.872,20.781,20.781,0,0,0,58.28,59.115Zm3.353,38.622-.616-4.713A11.957,11.957,0,0,0,71.236,80.7a1.474,1.474,0,0,0-1.629-1.436L62.4,80.02a5.619,5.619,0,0,0-5.762-1.964l-2.289-3.541a1.475,1.475,0,0,0-2.667.436l-.658,2.584-2.753-2.863a1.475,1.475,0,0,0-2.526,1.213L48.234,95a18.158,18.158,0,1,1,13.4,2.734Z" transform="translate(-37.523 -59.115)"/><path class="b" d="M57.876,63.748a16.7,16.7,0,0,0-9.28,2.8,1.29,1.29,0,0,0,.717,2.365,1.278,1.278,0,0,0,.713-.216,14.142,14.142,0,0,1,7.85-2.366,1.291,1.291,0,0,0,0-2.582Z" transform="translate(-35.224 -58.1)"/><path class="b" d="M64.826,66.07a16.757,16.757,0,0,0-3.9-1.917A1.291,1.291,0,1,0,60.1,66.6a14.122,14.122,0,0,1,3.3,1.622,1.291,1.291,0,1,0,1.43-2.15Z" transform="translate(-32.775 -58.028)"/></g></g></g><g transform="translate(56.443 31.015)"><text class="c" transform="translate(0.144 25.266)"><tspan x="0" y="0">LAIKACODE</tspan></text></g><path class="b" d="M129.653,57.459a.905.905,0,0,0-.857-.072A3.607,3.607,0,0,1,123.74,54.1a.9.9,0,0,0-1.265-.819,5.422,5.422,0,1,0,7.59,4.967.966.966,0,0,0-.006-.109.9.9,0,0,0-.406-.684Zm-5.012,4.41a3.613,3.613,0,0,1-2.481-6.242,5.444,5.444,0,0,0,5.193,3.871,5.543,5.543,0,0,0,.7-.045,3.621,3.621,0,0,1-3.411,2.416Zm0,0" transform="translate(-24.404 -34.209)"/></g></svg>