<svg xmlns="http://www.w3.org/2000/svg" xmlns:xlink="http://www.w3.org/1999/xlink" viewBox="0 0 339.52 288.48"><defs><style>.cls-1{fill:none;}.cls-2{isolation:isolate;}.cls-3{fill:#ffedff;}.cls-21,.cls-4{mix-blend-mode:multiply;}.cls-5{fill:#f5b1f5;}.cls-6{opacity:0.5;}.cls-7{fill:#b435ff;}.cls-8{fill:#ffa13f;}.cls-9{opacity:0.1;}.cls-10{fill:url(#linear-gradient);}.cls-11{opacity:0.2;}.cls-12{clip-path:url(#clip-path);}.cls-13{fill:#423a64;}.cls-14{fill:#ee3a4c;}.cls-15{fill:#ffd4b0;}.cls-16{fill:#7a6654;}.cls-17{fill:#ffb698;}.cls-18{fill:#ffaa31;}.cls-19{fill:#ffc170;}.cls-20{fill:#c7c7c7;}.cls-21{fill:#ffa6f5;}</style><linearGradient id="linear-gradient" x1="82.57" y1="340.39" x2="183.59" y2="340.39" gradientTransform="translate(-67.56 37.67) rotate(-12.75)" gradientUnits="userSpaceOnUse"><stop offset="0" stop-color="#fbff00"/><stop offset="1" stop-color="#a0d10a"/></linearGradient><clipPath id="clip-path" transform="translate(-65.07 -121.39)"><path class="cls-1" d="M158.42,196.06c-16.43,10.29-35,17.64-48.94,31.11s-21.91,36.16-11.3,52.38c5.8,8.86,16.14,14.34,20.64,23.93,4.29,9.15,2.2,20.17-2.38,29.18s-11.4,16.65-17.14,25-10.55,17.89-10.19,28,7.4,20.5,17.43,21.71c9.63,1.17,18-5.83,26-11.39a110.8,110.8,0,0,1,89.1-16.51c18.55,4.62,35.52,14,53.4,20.77s38,10.85,56,4.53c14.07-4.93,25.36-15.68,34.64-27.34,8.22-10.32,15.5-22.49,15.07-35.67-.5-15.32-11.26-28.34-22.88-38.34S333,284.82,324.33,272.17C311.73,253.75,311,230,304.82,208.59c-7-24.45-22.35-47.31-44.84-59.19-17.33-9.15-48.94-13.47-65,1.3-5.79,5.35-6.45,14.1-10.53,20.75C178.21,181.69,168.5,189.74,158.42,196.06Z"/></clipPath></defs><title>2873839</title><g class="cls-2"><g id="OBJECTS"><path class="cls-3" d="M158.42,196.06c-16.43,10.29-35,17.64-48.94,31.11s-21.91,36.16-11.3,52.38c5.8,8.86,16.14,14.34,20.64,23.93,4.29,9.15,2.2,20.17-2.38,29.18s-11.4,16.65-17.14,25-10.55,17.89-10.19,28,7.4,20.5,17.43,21.71c9.63,1.17,18-5.83,26-11.39a110.8,110.8,0,0,1,89.1-16.51c18.55,4.62,35.52,14,53.4,20.77s38,10.85,56,4.53c14.07-4.93,25.36-15.68,34.64-27.34,8.22-10.32,15.5-22.49,15.07-35.67-.5-15.32-11.26-28.34-22.88-38.34S333,284.82,324.33,272.17C311.73,253.75,311,230,304.82,208.59c-7-24.45-22.35-47.31-44.84-59.19-17.33-9.15-48.94-13.47-65,1.3-5.79,5.35-6.45,14.1-10.53,20.75C178.21,181.69,168.5,189.74,158.42,196.06Z" transform="translate(-65.07 -121.39)"/><g class="cls-4"><path class="cls-5" d="M122.77,340.87a1,1,0,0,1-.71-.3,1,1,0,0,1-.22-.32,1,1,0,0,1-.07-.38,1.07,1.07,0,0,1,.07-.39,1.21,1.21,0,0,1,.22-.32,1,1,0,0,1,.33-.22,1,1,0,0,1,1.09.22,1,1,0,0,1,.21.32,1.09,1.09,0,0,1,.08.39,1,1,0,0,1-1,1Z" transform="translate(-65.07 -121.39)"/><path class="cls-5" d="M118.62,339.48h0a1,1,0,0,1-.56-1.3h0a1,1,0,0,1,1.29-.57h0a1,1,0,0,1,.57,1.3h0a1,1,0,0,1-.93.63h0A1,1,0,0,1,118.62,339.48Zm-3.73-1.64h0a1,1,0,0,1-.46-1.34h0a1,1,0,0,1,1.33-.46h0a1,1,0,0,1,.46,1.34h0a1,1,0,0,1-.9.56h0A1,1,0,0,1,114.89,337.84Zm-3.59-1.93a1,1,0,0,1-.36-1.37h0a1,1,0,0,1,1.37-.35h0a1,1,0,0,1,.35,1.37h0a1,1,0,0,1-.86.49h0A.9.9,0,0,1,111.3,335.91Zm-3.44-2.19h0a1,1,0,0,1-.25-1.39h0a1,1,0,0,1,1.39-.25h0a1,1,0,0,1,.25,1.4h0a1,1,0,0,1-.82.43h0A1,1,0,0,1,107.86,333.72Zm212.27-.29a1,1,0,0,1,.24-1.39h0a1,1,0,0,1,1.39.23h0a1,1,0,0,1-.24,1.4h0a1,1,0,0,1-.58.18h0A1,1,0,0,1,320.13,333.43ZM104.6,331.28a1,1,0,0,1-.14-1.41h0a1,1,0,0,1,1.4-.15h0a1,1,0,0,1,.15,1.41h0a1,1,0,0,1-.78.37h0A1.07,1.07,0,0,1,104.6,331.28Zm218.77-.19a1,1,0,0,1,.19-1.4h0a1,1,0,0,1,1.4.18h0a1,1,0,0,1-.19,1.41h0a1,1,0,0,1-.6.2h0A1,1,0,0,1,323.37,331.09Zm3.16-2.46a1,1,0,0,1,.14-1.41h0a1,1,0,0,1,1.4.14h0a1,1,0,0,1-.13,1.41h0a1,1,0,0,1-.64.23h0A1,1,0,0,1,326.53,328.63Zm-225,0h0a1,1,0,0,1,0-1.41h0a1,1,0,0,1,1.41-.05h0a1,1,0,0,1,0,1.42h0a1,1,0,0,1-.73.31h0A1,1,0,0,1,101.53,328.6Zm228.07-2.53a1,1,0,0,1,.09-1.41h0a1,1,0,0,1,1.41.08h0a1,1,0,0,1-.09,1.42h0a1,1,0,0,1-.66.25h0A1,1,0,0,1,329.6,326.07Zm-230.94-.36a1,1,0,0,1,.06-1.41h0a1,1,0,0,1,1.41.05h0a1,1,0,0,1,0,1.42h0a1.05,1.05,0,0,1-.68.26h0A1,1,0,0,1,98.66,325.71Zm233.92-2.31a1,1,0,0,1,0-1.41h0a1,1,0,0,1,1.42,0h0a1,1,0,0,1-.05,1.41h0a1,1,0,0,1-.68.27h0A1,1,0,0,1,332.58,323.4ZM96,322.62a1,1,0,0,1,.16-1.4h0a1,1,0,0,1,1.4.15h0a1,1,0,0,1-.16,1.41h0a1,1,0,0,1-.62.22h0A1,1,0,0,1,96,322.62Zm239.46-2a1,1,0,0,1,0-1.41h0a1,1,0,0,1,1.41,0h0a1,1,0,0,1,0,1.42h0a1,1,0,0,1-.7.29h0A1,1,0,0,1,335.47,320.63ZM93.58,319.35a1,1,0,0,1,.26-1.39h0a1,1,0,0,1,1.39.26h0a1,1,0,0,1-.26,1.39h0a1,1,0,0,1-.56.17h0A1,1,0,0,1,93.58,319.35Zm244.68-1.58a1,1,0,0,1-.05-1.41h0a1,1,0,0,1,1.41-.06h0a1,1,0,0,1,.06,1.42h0a1,1,0,0,1-.74.32h0A1,1,0,0,1,338.26,317.77ZM91.4,315.91a1,1,0,0,1,.36-1.37h0a1,1,0,0,1,1.37.36h0a1,1,0,0,1-.36,1.37h0a1,1,0,0,1-.51.14h0A1,1,0,0,1,91.4,315.91ZM341,314.81a1,1,0,0,1-.1-1.41h0a1,1,0,0,1,1.41-.1h0a1,1,0,0,1,.1,1.41h0a1,1,0,0,1-.75.35h0A1,1,0,0,1,341,314.81ZM89.48,312.32a1,1,0,0,1,.46-1.33h0a1,1,0,0,1,1.33.45h0a1,1,0,0,1-.46,1.34h0a1,1,0,0,1-.43.1h0A1,1,0,0,1,89.48,312.32Zm254.08-.55a1,1,0,0,1-.15-1.41h0a1,1,0,0,1,1.41-.14h0a1,1,0,0,1,.15,1.4h0a1,1,0,0,1-.78.37h0A1,1,0,0,1,343.56,311.77ZM87.83,308.59h0a1,1,0,0,1,.56-1.29h0a1,1,0,0,1,1.3.55h0a1,1,0,0,1-.55,1.3h0a1,1,0,0,1-.37.07h0A1,1,0,0,1,87.83,308.59Zm258.22.05a1,1,0,0,1-.19-1.4h0a1,1,0,0,1,1.4-.19h0a1,1,0,0,1,.19,1.4h0a1,1,0,0,1-.8.39h0A1,1,0,0,1,346.05,308.64Zm2.39-3.21a1,1,0,0,1-.24-1.39h0a1,1,0,0,1,1.39-.24h0a1,1,0,0,1,.24,1.39h0a1,1,0,0,1-.82.42h0A1,1,0,0,1,348.44,305.43Zm-262-.68h0a1,1,0,0,1,.66-1.25h0a1,1,0,0,1,1.25.66h0a1,1,0,0,1-.65,1.25h0a1,1,0,0,1-.3,0h0A1,1,0,0,1,86.47,304.75Zm264.25-2.61a1,1,0,0,1-.29-1.38h0a1,1,0,0,1,1.39-.29h0a1,1,0,0,1,.28,1.39h0a1,1,0,0,1-.83.45h0A1,1,0,0,1,350.72,302.14ZM85.41,300.81h0a1,1,0,0,1,.75-1.19h0a1,1,0,0,1,1.2.75h0a1,1,0,0,1-.76,1.2h0l-.22,0h0A1,1,0,0,1,85.41,300.81Zm267.47-2a1,1,0,0,1-.33-1.37h0a1,1,0,0,1,1.38-.34h0a1,1,0,0,1,.33,1.38h0a1,1,0,0,1-.86.48h0A1,1,0,0,1,352.88,298.78Zm-268.2-2a1,1,0,0,1,.85-1.13h0a1,1,0,0,1,1.13.85h0a1,1,0,0,1-.86,1.13h-.14A1,1,0,0,1,84.68,296.8Zm270.26-1.45a1,1,0,0,1-.38-1.36h0a1,1,0,0,1,1.36-.37h0a1,1,0,0,1,.38,1.36h0a1,1,0,0,1-.87.51h0A1,1,0,0,1,354.94,295.35ZM84.3,292.72a1,1,0,0,1,1-1h0a1,1,0,0,1,1,.95h0a1,1,0,0,1-1,1h0A1,1,0,0,1,84.3,292.72Zm272.58-.87a1,1,0,0,1-.43-1.35h0a1,1,0,0,1,1.35-.43h0a1,1,0,0,1,.43,1.35h0a1,1,0,0,1-.89.54h0A1,1,0,0,1,356.88,291.85ZM85.25,289.67a1,1,0,0,1-1-1h0a1,1,0,0,1,1-.95h0a1,1,0,0,1,1,1h0a1,1,0,0,1-1,.95h0Zm273.45-1.39a1,1,0,0,1-.47-1.33h0a1,1,0,0,1,1.34-.47h0a1,1,0,0,1,.47,1.33h0a1,1,0,0,1-.9.57h0A.91.91,0,0,1,358.7,288.28Zm-273.18-2.6a1,1,0,0,1-.85-1.13h0a1,1,0,0,1,1.14-.85h0a1,1,0,0,1,.84,1.13h0a1,1,0,0,1-1,.86h-.15Zm274.87-1a1,1,0,0,1-.51-1.32h0a1,1,0,0,1,1.31-.51h0a1,1,0,0,1,.52,1.32h0a1,1,0,0,1-.92.59h0A1,1,0,0,1,360.39,284.66Zm-274.2-2.92a1,1,0,0,1-.73-1.22h0a1,1,0,0,1,1.22-.72h0A1,1,0,0,1,87.4,281h0a1,1,0,0,1-1,.76h0ZM362,281a1,1,0,0,1-.56-1.3h0a1,1,0,0,1,1.3-.56h0a1,1,0,0,1,.56,1.3h0a1,1,0,0,1-.93.63h0A1,1,0,0,1,362,281ZM87.27,277.89a1,1,0,0,1-.58-1.29h0A1,1,0,0,1,88,276h0a1,1,0,0,1,.58,1.29h0a1,1,0,0,1-.94.65h0A1.07,1.07,0,0,1,87.27,277.89Zm276.13-.64a1,1,0,0,1-.6-1.28h0a1,1,0,0,1,1.28-.6h0a1,1,0,0,1,.6,1.27h0a1,1,0,0,1-.94.67h0A1.06,1.06,0,0,1,363.4,277.25ZM88.8,274.19a1,1,0,0,1-.42-1.35h0a1,1,0,0,1,1.36-.41h0a1,1,0,0,1,.41,1.35h0a1,1,0,0,1-.89.53h0A1,1,0,0,1,88.8,274.19Zm275.92-.72a1,1,0,0,1-.65-1.25h0a1,1,0,0,1,1.26-.65h0a1,1,0,0,1,.64,1.26h0a1,1,0,0,1-1,.7h0A1,1,0,0,1,364.72,273.47ZM90.79,270.73a1,1,0,0,1-.21-1.4h0a1,1,0,0,1,1.39-.22h0a1,1,0,0,1,.22,1.4h0a1,1,0,0,1-.81.41h0A1,1,0,0,1,90.79,270.73Zm275.11-1.08a1,1,0,0,1-.7-1.23h0a1,1,0,0,1,1.23-.7h0a1,1,0,0,1,.7,1.23h0a1,1,0,0,1-1,.74h0A1.26,1.26,0,0,1,365.9,269.65ZM93.28,267.59a1,1,0,0,1,0-1.42h0a1,1,0,0,1,1.41,0h0a1,1,0,0,1,0,1.41h0a1,1,0,0,1-.71.29h0A1,1,0,0,1,93.28,267.59Zm273.66-1.81a1,1,0,0,1-.75-1.2h0a1,1,0,0,1,1.2-.74h0a1,1,0,0,1,.74,1.2h0a1,1,0,0,1-1,.77h0A.85.85,0,0,1,366.94,265.78Zm-270.72-.9a1,1,0,0,1,.23-1.39h0a1,1,0,0,1,1.39.22h0a1,1,0,0,1-.22,1.4h0a1,1,0,0,1-.59.19h0A1,1,0,0,1,96.22,264.88Zm3.33-2.22a1,1,0,0,1,.4-1.35h0a1,1,0,0,1,1.35.4h0a1,1,0,0,1-.4,1.35h0a.9.9,0,0,1-.47.13h0A1,1,0,0,1,99.55,262.66Zm268.27-.78a1,1,0,0,1-.79-1.17h0a1,1,0,0,1,1.17-.79h0a1,1,0,0,1,.79,1.17h0a1,1,0,0,1-1,.81h0ZM103.1,260.83a1,1,0,0,1,.5-1.33h0a1,1,0,0,1,1.32.5h0a1,1,0,0,1-.49,1.32h0a1.06,1.06,0,0,1-.42.09h0A1,1,0,0,1,103.1,260.83Zm3.66-1.63a1,1,0,0,1,.52-1.32h0a1,1,0,0,1,1.31.52h0a1,1,0,0,1-.52,1.32h0a1.1,1.1,0,0,1-.4.08h0A1,1,0,0,1,106.76,259.2Zm3.66-1.61a1,1,0,0,1,.47-1.33h0a1,1,0,0,1,1.34.47h0a1,1,0,0,1-.48,1.34h0a1.07,1.07,0,0,1-.43.09h0A1,1,0,0,1,110.42,257.59Zm258.12.35a1,1,0,0,1-.85-1.13h0a1,1,0,0,1,1.13-.84h0a1,1,0,0,1,.85,1.13h0a1,1,0,0,1-1,.86h0ZM114,255.82a1,1,0,0,1,.35-1.37h0a1,1,0,0,1,1.37.36h0a1,1,0,0,1-.36,1.37h0a1,1,0,0,1-.5.13h0A1,1,0,0,1,114,255.82Zm3.39-2.11a1,1,0,0,1,.22-1.4h0a1,1,0,0,1,1.39.22h0a1,1,0,0,1-.21,1.39h0a1,1,0,0,1-.59.2h0A1,1,0,0,1,117.4,253.71Zm251.66.27a1,1,0,0,1-.9-1.09h0a1,1,0,0,1,1.09-.9h0a1,1,0,0,1,.9,1.09h0a1,1,0,0,1-1,.9h-.1Zm-248.5-2.73a1,1,0,0,1,.06-1.41h0a1,1,0,0,1,1.41.07h0a1,1,0,0,1-.07,1.41h0a1,1,0,0,1-.67.26h0A1,1,0,0,1,120.56,251.25ZM369.38,250a1,1,0,0,1-1-1h0a1,1,0,0,1,1-1h0a1,1,0,0,1,1,1h0a1,1,0,0,1-1,1h0Zm-245.93-1.5a1,1,0,0,1-.07-1.41h0a1,1,0,0,1,1.41-.07h0a1,1,0,0,1,.07,1.41h0a1,1,0,0,1-.74.33h0A1,1,0,0,1,123.45,248.49Zm245-3.47a1,1,0,0,1,1-1h0a1,1,0,0,1,1,1h0a1,1,0,0,1-1,1h0A1,1,0,0,1,368.45,245Zm-242.39.45a1,1,0,0,1-.2-1.4h0a1,1,0,0,1,1.4-.19h0a1,1,0,0,1,.2,1.4h0a1,1,0,0,1-.8.4h0A1,1,0,0,1,126.06,245.47Zm2.34-3.25a1,1,0,0,1-.31-1.38h0a1,1,0,0,1,1.38-.3h0a1,1,0,0,1,.31,1.38h0a1,1,0,0,1-.85.46h0A.94.94,0,0,1,128.4,242.22Zm239.83-1.13a1,1,0,0,1,.91-1.09h0a1,1,0,0,1,1.08.91h0a1,1,0,0,1-.9,1.09h-.09A1,1,0,0,1,368.23,241.09Zm-237.75-2.28a1,1,0,0,1-.4-1.35h0a1,1,0,0,1,1.35-.41h0a1,1,0,0,1,.41,1.36h0a1,1,0,0,1-.89.52h0A1,1,0,0,1,130.48,238.81Zm237.27-1.62a1,1,0,0,1,.83-1.15h0a1,1,0,0,1,1.14.83h0a1,1,0,0,1-.82,1.15h-.16A1,1,0,0,1,367.75,237.19Zm-235.42-1.93a1,1,0,0,1-.49-1.32h0a1,1,0,0,1,1.33-.49h0a1,1,0,0,1,.49,1.33h0a1,1,0,0,1-.9.58h0A.87.87,0,0,1,132.33,235.26ZM367,233.34a1,1,0,0,1,.74-1.21h0a1,1,0,0,1,1.2.74h0a1,1,0,0,1-.74,1.21h0l-.23,0h0A1,1,0,0,1,367,233.34Zm-233-1.73a1,1,0,0,1-.55-1.3h0a1,1,0,0,1,1.3-.55h0a1,1,0,0,1,.55,1.3h0a1,1,0,0,1-.93.63h0A1,1,0,0,1,134,231.61Zm232-2a1,1,0,0,1,.64-1.26h0a1,1,0,0,1,1.26.64h0a1,1,0,0,1-.64,1.26h0a1.06,1.06,0,0,1-.31,0h0A1,1,0,0,1,365.92,229.57Zm-230.51-1.69a1,1,0,0,1-.62-1.27h0a1,1,0,0,1,1.28-.61h0a1,1,0,0,1,.61,1.27h0a1,1,0,0,1-.94.67h0A1,1,0,0,1,135.41,227.88Zm229.15-2h0a1,1,0,0,1,.54-1.31h0a1,1,0,0,1,1.3.54h0a1,1,0,0,1-.53,1.31h0a1.09,1.09,0,0,1-.39.08h0A1,1,0,0,1,364.56,225.89Zm-227.87-1.8a1,1,0,0,1-.66-1.25h0a1,1,0,0,1,1.24-.66h0a1,1,0,0,1,.67,1.25h0a1,1,0,0,1-1,.71h0A1,1,0,0,1,136.69,224.09Zm226.21-1.74h0a1,1,0,0,1,.42-1.35h0a1,1,0,0,1,1.35.42h0a1,1,0,0,1-.42,1.35h0a1,1,0,0,1-.46.11h0A1,1,0,0,1,362.9,222.35Zm-225.07-2.09a1,1,0,0,1-.71-1.23h0a1,1,0,0,1,1.23-.7h0a1,1,0,0,1,.7,1.22h0a1,1,0,0,1-1,.74h0A1.09,1.09,0,0,1,137.83,220.26ZM360.94,219h0a1,1,0,0,1,.3-1.38h0a1,1,0,0,1,1.38.3h0a1,1,0,0,1-.3,1.39h0a1,1,0,0,1-.53.15h0A1,1,0,0,1,360.94,219Zm-222.1-2.58a1,1,0,0,1-.74-1.2h0a1,1,0,0,1,1.21-.74h0a1,1,0,0,1,.74,1.2h0a1,1,0,0,1-1,.76h0A1,1,0,0,1,138.84,216.38Zm219.84-.61h0a1,1,0,0,1,.18-1.41h0a1,1,0,0,1,1.4.17h0a1,1,0,0,1-.17,1.41h0a1,1,0,0,1-.62.21h0A1,1,0,0,1,358.68,215.77Zm-2.55-2.94h0a1,1,0,0,1,0-1.41h0a1,1,0,0,1,1.41,0h0a1,1,0,0,1,0,1.42h0a1,1,0,0,1-.69.27h0A1,1,0,0,1,356.13,212.83Zm-216.38-.34a1,1,0,0,1-.77-1.19h0a1,1,0,0,1,1.19-.77h0a1,1,0,0,1,.77,1.19h0a1,1,0,0,1-1,.79h0Zm213.55-2.33a1,1,0,0,1-.12-1.41h0a1,1,0,0,1,1.41-.12h0a1,1,0,0,1,.12,1.41h0a1,1,0,0,1-.77.36h0A1,1,0,0,1,353.3,210.16Zm-212.73-1.59a1,1,0,0,1-.79-1.17h0a1,1,0,0,1,1.17-.79h0a1,1,0,0,1,.79,1.17h0a1,1,0,0,1-1,.81h0Zm209.62-.75a1,1,0,0,1-.27-1.38h0a1,1,0,0,1,1.38-.28h0a1,1,0,0,1,.28,1.39h0a1,1,0,0,1-.83.44h0A1,1,0,0,1,350.19,207.82Zm-3.34-2h0a1,1,0,0,1-.42-1.35h0a1,1,0,0,1,1.35-.42h0a1,1,0,0,1,.43,1.36h0a1,1,0,0,1-.89.53h0A1,1,0,0,1,346.85,205.84Zm-71.48-1.77a1,1,0,0,1,1-1h0a1,1,0,0,1,1,1h0a1,1,0,0,1-1,1h0A1,1,0,0,1,275.37,204.07Zm-3.06.91a1,1,0,0,1-.94-1h0a1,1,0,0,1,1-1h0a1,1,0,0,1,.95,1.05h0a1,1,0,0,1-1,.95h-.05Zm7.05-1a1,1,0,0,1,.95-1.05h0a1,1,0,0,1,1.05,1h0a1,1,0,0,1-.95,1h-.05A1,1,0,0,1,279.36,204Zm4-.24a1,1,0,0,1,.91-1.08h0a1,1,0,0,1,1.08.91h0a1,1,0,0,1-.91,1.08h-.08A1,1,0,0,1,283.36,203.76Zm-15.09.89a1,1,0,0,1-.89-1.1h0a1,1,0,0,1,1.11-.88h0a1,1,0,0,1,.88,1.1h0a1,1,0,0,1-1,.89h-.11Zm-126.95,0a1,1,0,0,1-.8-1.16h0a1,1,0,0,1,1.17-.8h0a1,1,0,0,1,.8,1.16h0a1,1,0,0,1-1,.82h0Zm202-.43a1,1,0,0,1-.56-1.31h0a1,1,0,0,1,1.3-.55h0a1,1,0,0,1,.56,1.3h0a1,1,0,0,1-.93.63h0A.94.94,0,0,1,343.31,204.21Zm-56-.83a1,1,0,0,1,.88-1.1h0a1,1,0,0,1,1.11.88h0a1,1,0,0,1-.88,1.11h-.11A1,1,0,0,1,287.34,203.38Zm-23.1.69a1,1,0,0,1-.81-1.16h0a1,1,0,0,1,1.16-.81h0a1,1,0,0,1,.81,1.16h0a1,1,0,0,1-1,.83h0Zm27.07-1.15a1,1,0,0,1,.87-1.13h0a1,1,0,0,1,1.12.86h0a1,1,0,0,1-.86,1.13h-.14A1,1,0,0,1,291.31,202.92Zm-31.05.29a1,1,0,0,1-.72-1.22h0a1,1,0,0,1,1.22-.72h0a1,1,0,0,1,.72,1.22h0a1,1,0,0,1-1,.75h0A1.07,1.07,0,0,1,260.26,203.21Zm35-.83a1,1,0,0,1,.85-1.13h0a1,1,0,0,1,1.13.85h0a1,1,0,0,1-.85,1.13h-.14A1,1,0,0,1,295.28,202.38Zm44.33.54h0a1,1,0,0,1-.67-1.25h0a1,1,0,0,1,1.25-.67h0a1,1,0,0,1,.67,1.25h0a1,1,0,0,1-1,.71h0A1.55,1.55,0,0,1,339.61,202.92Zm-40.37-1.11a1,1,0,0,1,.85-1.13h0a1,1,0,0,1,1.13.85h0a1,1,0,0,1-.85,1.13h-.14A1,1,0,0,1,299.24,201.81Zm4-.56a1,1,0,0,1,.85-1.13h0a1,1,0,0,1,1.13.85h0a1,1,0,0,1-.85,1.13h-.14A1,1,0,0,1,303.2,201.25Zm-46.85.79h0a1,1,0,0,1-.62-1.27h0a1,1,0,0,1,1.27-.62h0a1,1,0,0,1,.62,1.27h0a1,1,0,0,1-.94.68h0A1,1,0,0,1,256.35,202Zm79.47-.1a1,1,0,0,1-.77-1.19h0a1,1,0,0,1,1.19-.76h0a1,1,0,0,1,.77,1.18h0a1,1,0,0,1-1,.8h0A.76.76,0,0,1,335.82,201.94Zm-28.66-1.23a1,1,0,0,1,.88-1.11h0a1,1,0,0,1,1.11.87h0a1,1,0,0,1-.87,1.12h-.12A1,1,0,0,1,307.16,200.71Zm24.79.55a1,1,0,0,1-.85-1.13h0a1,1,0,0,1,1.13-.85h0a1,1,0,0,1,.85,1.13h0a1,1,0,0,1-1,.86H332Zm-20.81-1a1,1,0,0,1,.89-1.1h0a1,1,0,0,1,1.1.9h0a1,1,0,0,1-.9,1.09h-.1A1,1,0,0,1,311.14,200.25Zm16.9.58a1,1,0,0,1-.93-1.08h0a1,1,0,0,1,1.08-.91h0a1,1,0,0,1,.92,1.07h0a1,1,0,0,1-1,.92H328Zm-12.92-1a1,1,0,0,1,.93-1.06h0a1,1,0,0,1,1.07.93h0a1,1,0,0,1-.93,1.06h-.07A1,1,0,0,1,315.12,199.88Zm-173.06.83a1,1,0,0,1-.8-1.17h0a1,1,0,0,1,1.17-.79h0a1,1,0,0,1,.79,1.16h0a1,1,0,0,1-1,.82h0Zm177.06-1.05a1,1,0,0,1,1-1h0a1,1,0,0,1,1,1h0a1,1,0,0,1-1,1h0A1,1,0,0,1,319.12,199.66Zm5,1a1,1,0,0,1-1-1h0a1,1,0,0,1,1-1h0a1,1,0,0,1,1,1h0a1,1,0,0,1-1,1h0Zm-71.54-.09a1,1,0,0,1-.5-1.32h0a1,1,0,0,1,1.32-.5h0a1,1,0,0,1,.5,1.32h0a1,1,0,0,1-.91.59h0A1,1,0,0,1,252.55,200.54Zm-3.65-1.87a1,1,0,0,1-.37-1.36h0a1,1,0,0,1,1.37-.37h0a1,1,0,0,1,.36,1.37h0a1,1,0,0,1-.86.5h0A1,1,0,0,1,248.9,198.67Zm-106.09-1.89a1,1,0,0,1-.79-1.18h0a1,1,0,0,1,1.18-.78h0A1,1,0,0,1,144,196h0a1,1,0,0,1-1,.81h0Zm102.65-.36a1,1,0,0,1-.21-1.4h0a1,1,0,0,1,1.4-.21h0a1,1,0,0,1,.21,1.4h0a1,1,0,0,1-.81.41h0A1,1,0,0,1,245.46,196.42Zm-3.16-2.64a1,1,0,0,1,0-1.41h0a1,1,0,0,1,1.42,0h0a1,1,0,0,1,0,1.41h0a1,1,0,0,1-.72.31h0A1,1,0,0,1,242.3,193.78Zm-98.7-.92a1,1,0,0,1-.77-1.19h0a1,1,0,0,1,1.19-.77h0a1,1,0,0,1,.77,1.19h0a1,1,0,0,1-1,.79h0Zm95.89-2.1a1,1,0,0,1,.13-1.4h0a1,1,0,0,1,1.41.13h0a1,1,0,0,1-.13,1.41h0a1,1,0,0,1-.64.23h0A1,1,0,0,1,239.49,190.76Zm-95-1.81a1,1,0,0,1-.75-1.2h0a1,1,0,0,1,1.2-.75h0a1,1,0,0,1,.75,1.2h0a1,1,0,0,1-1,.77h0A.82.82,0,0,1,144.46,189Zm92.59-1.48h0a1,1,0,0,1,.28-1.39h0a1,1,0,0,1,1.39.28h0a1,1,0,0,1-.28,1.39h0a1,1,0,0,1-.55.17h0A1,1,0,0,1,237.05,187.47Zm-91.65-2.41a1,1,0,0,1-.71-1.22h0a1,1,0,0,1,1.22-.71h0a1,1,0,0,1,.71,1.22h0a1,1,0,0,1-1,.74h0A1.09,1.09,0,0,1,145.4,185.06ZM234.93,184a1,1,0,0,1,.39-1.37h0a1,1,0,0,1,1.36.39h0a1,1,0,0,1-.39,1.36h0a.94.94,0,0,1-.48.13h0A1,1,0,0,1,234.93,184Zm-88.48-2.79a1,1,0,0,1-.67-1.25h0a1,1,0,0,1,1.25-.67h0a1,1,0,0,1,.67,1.25h0a1,1,0,0,1-1,.71h0A1.45,1.45,0,0,1,146.45,181.2Zm86.61-.81a1,1,0,0,1,.45-1.34h0a1,1,0,0,1,1.34.46h0a1,1,0,0,1-.45,1.34h0a1,1,0,0,1-.44.1h0A1,1,0,0,1,233.06,180.39Zm-85.42-3a1,1,0,0,1-.62-1.27h0a1,1,0,0,1,1.27-.61h0a1,1,0,0,1,.62,1.27h0a1,1,0,0,1-.94.67h0A1,1,0,0,1,147.64,177.37Zm83.7-.62a1,1,0,0,1,.49-1.33h0a1,1,0,0,1,1.33.5h0a1,1,0,0,1-.5,1.32h0a1,1,0,0,1-.41.09h0A1,1,0,0,1,231.34,176.75Zm-1.66-3.65a1,1,0,0,1,.5-1.32h0a1,1,0,0,1,1.32.49h0a1,1,0,0,1-.49,1.32h0a1.06,1.06,0,0,1-.42.09h0A1,1,0,0,1,229.68,173.1Zm-80.69.51a1,1,0,0,1-.56-1.3h0a1,1,0,0,1,1.3-.56h0a1,1,0,0,1,.56,1.3h0a1,1,0,0,1-.93.63h0A.94.94,0,0,1,149,173.61Zm79-4.12h0a1,1,0,0,1,.47-1.34h0a1,1,0,0,1,1.33.48h0a1,1,0,0,1-.47,1.33h0a.94.94,0,0,1-.43.1h0A1,1,0,0,1,228,169.49Zm-77.48.42a1,1,0,0,1-.49-1.33h0a1,1,0,0,1,1.33-.48h0a1,1,0,0,1,.48,1.33h0a1,1,0,0,1-.91.58h0A.9.9,0,0,1,150.53,169.91Zm75.71-4a1,1,0,0,1,.41-1.35h0A1,1,0,0,1,228,165h0a1,1,0,0,1-.41,1.35h0a1,1,0,0,1-.47.12h0A1,1,0,0,1,226.24,166Zm-74,.37a1,1,0,0,1-.4-1.36h0a1,1,0,0,1,1.36-.4h0a1,1,0,0,1,.4,1.36h0a1,1,0,0,1-.88.52h0A1,1,0,0,1,152.28,166.32Zm72-3.78h0a1,1,0,0,1,.32-1.37h0a1,1,0,0,1,1.38.32h0a1,1,0,0,1-.32,1.37h0a1,1,0,0,1-.53.15h0A1,1,0,0,1,224.28,162.54Zm-70,.31a1,1,0,0,1-.29-1.39h0a1,1,0,0,1,1.38-.29h0a1,1,0,0,1,.29,1.39h0a1,1,0,0,1-.84.46h0A1,1,0,0,1,154.27,162.85Zm2.25-3.31a1,1,0,0,1-.18-1.4h0a1,1,0,0,1,1.4-.18h0a1,1,0,0,1,.18,1.4h0a1,1,0,0,1-.79.39h0A1,1,0,0,1,156.52,159.54Zm65.55-.22a1,1,0,0,1,.19-1.4h0a1,1,0,0,1,1.4.19h0a1,1,0,0,1-.19,1.4h0a1,1,0,0,1-.61.21h0A1,1,0,0,1,222.07,159.32Zm-63-2.89A1,1,0,0,1,159,155h0a1,1,0,0,1,1.42-.05h0a1,1,0,0,1,0,1.41h0a1,1,0,0,1-.74.32h0A1,1,0,0,1,159,156.43Zm60.53-.09a1,1,0,0,1,.05-1.41h0a1,1,0,0,1,1.41,0h0a1,1,0,0,1-.05,1.41h0a1,1,0,0,1-.68.27h0A1,1,0,0,1,219.56,156.34Zm-57.74-2.77a1,1,0,0,1,.08-1.41h0a1,1,0,0,1,1.41.07h0a1,1,0,0,1-.08,1.42h0a1,1,0,0,1-.66.25h0A1,1,0,0,1,161.82,153.57Zm54.94.05h0a1,1,0,0,1-.09-1.41h0a1,1,0,0,1,1.41-.09h0a1,1,0,0,1,.09,1.41h0a1,1,0,0,1-.75.34h0A1,1,0,0,1,216.76,153.62ZM164.87,151a1,1,0,0,1,.22-1.4h0a1,1,0,0,1,1.4.22h0a1,1,0,0,1-.23,1.4h0a1,1,0,0,1-.58.19h0A1,1,0,0,1,164.87,151Zm48.84.2a1,1,0,0,1-.22-1.4h0a1,1,0,0,1,1.4-.22h0a1,1,0,0,1,.22,1.4h0a1,1,0,0,1-.81.41h0A1,1,0,0,1,213.71,151.18Zm-45.55-2.48a1,1,0,0,1,.36-1.36h0a1,1,0,0,1,1.37.35h0a1,1,0,0,1-.36,1.37h0a1,1,0,0,1-.5.14h0A1,1,0,0,1,168.16,148.7Zm42.29.34a1,1,0,0,1-.35-1.37h0a1,1,0,0,1,1.37-.35h0a1,1,0,0,1,.35,1.36h0a1,1,0,0,1-.86.5h0A1,1,0,0,1,210.45,149Zm-38.79-2.28a1,1,0,0,1,.48-1.33h0a1,1,0,0,1,1.33.49h0a1,1,0,0,1-.48,1.33h0a1.06,1.06,0,0,1-.42.09h0A1,1,0,0,1,171.66,146.76Zm35.34.45h0a1,1,0,0,1-.48-1.33h0a1,1,0,0,1,1.34-.48h0a1,1,0,0,1,.49,1.33h0a1,1,0,0,1-.91.58h0A.9.9,0,0,1,207,147.21Zm-31.68-2.05a1,1,0,0,1,.61-1.27h0a1,1,0,0,1,1.28.61h0a1,1,0,0,1-.61,1.27h0a1,1,0,0,1-.33.06h0A1,1,0,0,1,175.32,145.16Zm28.07.56a1,1,0,0,1-.61-1.28h0a1,1,0,0,1,1.28-.6h0a1,1,0,0,1,.6,1.28h0a1,1,0,0,1-.94.66h0A1,1,0,0,1,203.39,145.72Zm-24.26-1.8a1,1,0,0,1,.72-1.21h0a1,1,0,0,1,1.22.72h0a1,1,0,0,1-.73,1.21h0a1,1,0,0,1-.24,0h0A1,1,0,0,1,179.13,143.92Zm20.52.67a1,1,0,0,1-.72-1.22h0a1,1,0,0,1,1.21-.72h0a1,1,0,0,1,.73,1.21h0a1,1,0,0,1-1,.76h0ZM183,143a1,1,0,0,1,.84-1.14h0a1,1,0,0,1,1.14.83h0a1,1,0,0,1-.84,1.14H184A1,1,0,0,1,183,143Zm12.8.79a1,1,0,0,1-.84-1.14h0a1,1,0,0,1,1.13-.84h0A1,1,0,0,1,197,143h0a1,1,0,0,1-1,.86h-.15Zm-8.83-1.3a1,1,0,0,1,.94-1.05h0a1,1,0,0,1,1.05.94h0a1,1,0,0,1-.94,1.05H188A1,1,0,0,1,187,142.53Zm4.95.92a1,1,0,0,1-.95-1h0a1,1,0,0,1,1-.95h0a1,1,0,0,1,1,1h0a1,1,0,0,1-1,.95h0Z" transform="translate(-65.07 -121.39)"/><path class="cls-5" d="M317.51,336.19a1,1,0,0,1-.38-.07.87.87,0,0,1-.32-.22,1,1,0,0,1-.3-.7,1,1,0,0,1,.3-.71,1,1,0,0,1,1.41,0,1,1,0,0,1,.29.71,1,1,0,0,1-1,1Z" transform="translate(-65.07 -121.39)"/></g><g class="cls-6"><circle class="cls-7" cx="77.93" cy="28.98" r="3.82"/><path class="cls-7" d="M121.86,196.81a2.87,2.87,0,1,1-2.87-2.87A2.87,2.87,0,0,1,121.86,196.81Z" transform="translate(-65.07 -121.39)"/><path class="cls-7" d="M153,226.94a2,2,0,1,1-2-2A2,2,0,0,1,153,226.94Z" transform="translate(-65.07 -121.39)"/><circle class="cls-7" cx="196.45" cy="51.68" r="4.01"/><path class="cls-7" d="M379.6,180a2.77,2.77,0,1,1-2.77-2.77A2.77,2.77,0,0,1,379.6,180Z" transform="translate(-65.07 -121.39)"/><circle class="cls-7" cx="207.29" cy="153.34" r="2.35"/><circle class="cls-7" cx="281.02" cy="131.72" r="3.15"/><path class="cls-7" d="M386.58,245.6h0a7.77,7.77,0,0,0,5,5h0a7.78,7.78,0,0,0-5,5h0a7.77,7.77,0,0,0-5-5h0a7.76,7.76,0,0,0,5-5Z" transform="translate(-65.07 -121.39)"/><path class="cls-7" d="M86.62,284.69h0a7.77,7.77,0,0,0,5,5h0a7.78,7.78,0,0,0-5,5h0a7.74,7.74,0,0,0-5-5h0a7.74,7.74,0,0,0,5-5Z" transform="translate(-65.07 -121.39)"/><path class="cls-7" d="M215,121.39h0a7.78,7.78,0,0,0,5,5h0a7.77,7.77,0,0,0-5,5h0a7.76,7.76,0,0,0-5-5h0a7.77,7.77,0,0,0,5-5Z" transform="translate(-65.07 -121.39)"/><path class="cls-7" d="M101.22,145.39h0a7.78,7.78,0,0,0,5,5h0a7.79,7.79,0,0,0-5,5h0a7.78,7.78,0,0,0-5-5h0a7.77,7.77,0,0,0,5-5Z" transform="translate(-65.07 -121.39)"/></g><path class="cls-8" d="M185.72,335,180.47,290c-.54-4.62-1.29-9.65-4.72-12.78-5.3-4.84-13.76-2.59-20.65-4.6s-11.68-8.1-14.78-14.5-4.94-13.38-8.36-19.61a44.19,44.19,0,0,0-40.37-22.33c-4.84,4.67-3.72,16-1.83,22.48s6,12,9.79,17.55,7.53,11.44,8.52,18.09c1.42,9.44-2.71,19.77,1.61,28.28,6.5,12.77,26.73,11.81,34.95,23.54,4,5.65,4.48,13.52,9.57,18.18,4.84,4.44,12.52,4.45,18.52,1.77S181.18,339.69,185.72,335Z" transform="translate(-65.07 -121.39)"/><path class="cls-9" d="M172.72,346.11a24.66,24.66,0,0,0,8.13-5.89A110.59,110.59,0,0,0,108.12,298a17.58,17.58,0,0,0,1.56,4.65c6.5,12.77,26.73,11.81,34.95,23.54,4,5.65,4.48,13.52,9.57,18.18C159,348.78,166.72,348.79,172.72,346.11Z" transform="translate(-65.07 -121.39)"/><path class="cls-10" d="M194.12,362.24A111.16,111.16,0,0,0,79.75,314.5c9,22,25.84,42.61,47.22,53S173.52,374.1,194.12,362.24Z" transform="translate(-65.07 -121.39)"/><path class="cls-11" d="M180.4,353.77q-16.07-5-32.19-10.33l-14-19.78a1.5,1.5,0,1,0-2.45,1.74l11.61,16.45q-11.83-3.93-23.63-8a1.48,1.48,0,0,0-.28-.56l-11.08-14a1.5,1.5,0,0,0-2.35,1.87l8.66,10.91q-7.94-2.75-15.83-5.55a1.5,1.5,0,0,0-1,2.82q13.71,4.89,27.6,9.61l-21.11,3.49a1.5,1.5,0,0,0,.24,3l.24,0,25.79-4.26a1.47,1.47,0,0,0,.59-.24q7.55,2.55,15.12,5.05a1.51,1.51,0,0,0,1.08.47l.24,0,4.79,1.56a195.09,195.09,0,0,1-28.55,7.14,1.5,1.5,0,0,0,.25,3l.26,0a199.62,199.62,0,0,0,32.79-8.55q11.15,3.61,22.28,7.09a1.39,1.39,0,0,0,.44.07,1.5,1.5,0,0,0,.45-2.93Z" transform="translate(-65.07 -121.39)"/><g class="cls-12"><path class="cls-13" d="M231.87,276c10.23,2.93,17.79,11.57,23.47,20.58s10.15,18.88,17.29,26.77,16.57,13.33,26.58,16.79,20.59,5,31.15,5.71a17.94,17.94,0,0,1,6.74,14.64c-28.84,8.53-60.79,5.45-86.17-10.67a36.23,36.23,0,0,1-13.19-13.71c-3-5.78-4.32-12.26-5.52-18.66C229.66,303.93,227.65,289.18,231.87,276Z" transform="translate(-65.07 -121.39)"/><path class="cls-14" d="M177.32,309.23c-13.29-4-23.13-16.62-25.15-30.34s3.27-28,12.68-38.19c3.24-3.51,7.06-6.74,8.82-11.18,2-4.93,1-10.44.85-15.73A33.11,33.11,0,0,1,177,198.9c2.1-4.62,5.91-8.62,10.75-10.14,9.61-3,19.39,4.15,29.44,4.65,3.49.17,7-.46,10.45-.65s7.16.13,10.1,2,4.89,5.67,3.72,9c5,.48,8.3,6.92,9,11.95s-.84,10.05-2.16,14.94-2.47,10.11-1.05,15c1.08,3.72,3.56,6.9,4.82,10.56,2.49,7.29-.27,15.54-5.13,21.51s-11.57,10.09-18.14,14.1c-9.95-4.37-22.77-2.11-29.65,6.31-3.14,3.84-5.12,8.59-8.67,12S182.06,310.65,177.32,309.23Z" transform="translate(-65.07 -121.39)"/><path class="cls-11" d="M182.69,290.11a15.31,15.31,0,0,1,.71-24c4.88-3.64,12-4.52,15.17-9.75a88.58,88.58,0,0,1,27.83-28.78,14.52,14.52,0,0,1,5-2.32,5.57,5.57,0,0,1,5.12,1.34,8.53,8.53,0,0,1,1.71,4l3.93,16.34c1.52,6.34,3,13,1.34,19.3-2.19,8.12-9.24,13.9-16.2,18.63-5.34-2.11-9.73.22-14.74,3s-9.65,6.51-15.17,8.1S187.09,293.81,182.69,290.11Z" transform="translate(-65.07 -121.39)"/><path class="cls-13" d="M251.46,389.74a123.67,123.67,0,0,0-.07-91.3c-3.35-8.31-7.94-16.61-15.52-21.39s-17.12-5.35-26.14-5.63c-8.24-.25-16.88-.3-24.18,3.52-7.05,3.7-11.88,10.54-15.82,17.46a138.81,138.81,0,0,0-17.11,51.91c-1.82,15.2-3.46,32.09,4.22,45.33,6.18,10.66,17.84,17.48,30,19.51s24.73-.34,36.2-4.85A139.4,139.4,0,0,0,251.46,389.74Z" transform="translate(-65.07 -121.39)"/><path class="cls-11" d="M212.74,291.77a9.1,9.1,0,0,0-5.23,1.67,20.36,20.36,0,0,1-4.94,2.56,4.88,4.88,0,0,1-5.11-1.28,14.18,14.18,0,0,0-2.66,4,12.57,12.57,0,0,0-6.28-1.54A226.86,226.86,0,0,0,153,341.38c-.14,1-.27,1.95-.39,2.93-1.27,10.64-2.46,22.11-.42,32.57a12.51,12.51,0,0,0,4.06.83c7,.11,13.42-3.79,18.53-8.53,8.53-7.94,14.36-18.43,18.31-29.4,3.53-9.77,5.74-19.72,7.71-29.88,2.83-4.33,7.37-7.65,11.91-10.34,1.72-1,3.68-2.33,3.71-4.32S214.6,291.91,212.74,291.77Z" transform="translate(-65.07 -121.39)"/><path class="cls-15" d="M201.65,252.75q-.78,13.35-1.58,26.7c6.5,2.89,14.5,4.23,21.45,2.73,0-8.34-.39-17.72-.42-26.05C216.41,252.07,207.57,250.89,201.65,252.75Z" transform="translate(-65.07 -121.39)"/><path class="cls-9" d="M221.47,277.43c-.11-7.05-.35-14.52-.37-21.3-4.69-4.06-13.53-5.24-19.45-3.38l-.85,14.33A63.26,63.26,0,0,0,221.47,277.43Z" transform="translate(-65.07 -121.39)"/><path class="cls-15" d="M238.51,221.83a79.79,79.79,0,0,1-9.38,44.49c-10.3,3.25-22.22,1.27-30.44-5.74a31,31,0,0,1-10.15-29.18,29.44,29.44,0,0,1,21.25-22.2C220.29,206.64,232.18,213.08,238.51,221.83Z" transform="translate(-65.07 -121.39)"/><path class="cls-9" d="M235.27,248.09c-1.6-1.38-3.33-2.44-4.94-3.82a6.64,6.64,0,0,0-1.81,1.35,12.17,12.17,0,0,0,1.63,6.81,12.35,12.35,0,0,0,3.64,3.63q1.32-3.57,2.29-7.24Z" transform="translate(-65.07 -121.39)"/><path class="cls-14" d="M243.93,230.78a17.88,17.88,0,0,1-13.59-4.65c1.55,4-3.08,8.12-6.84,10.23s-8.17,2.89-11.8,5.19c-3.87,2.46-6.51,6.4-9.12,10.16s-5.49,7.61-9.58,9.67-9.76,1.72-12.51-1.95c-.84-8.94-2.83-18.06-1.31-26.91S184.43,215,191,208.87a32.32,32.32,0,0,1,32.85-6.24C234.83,206.88,242.93,219.08,243.93,230.78Z" transform="translate(-65.07 -121.39)"/><path class="cls-15" d="M238.63,247.6c1.1.16,2.39.53,2.76,1.58a2.19,2.19,0,0,1-.94,2.39,5.66,5.66,0,0,1-2.59.83c-5.71.77-6.24-1.45-9.37-4.58-.83-.82-.54-2.36.07-3.34C230,242.17,235.7,247.18,238.63,247.6Z" transform="translate(-65.07 -121.39)"/><ellipse class="cls-16" cx="156.4" cy="119.89" rx="1.47" ry="3.05"/><ellipse class="cls-16" cx="170.07" cy="119.89" rx="1.47" ry="3.05"/><path class="cls-17" d="M226,248.84c0,1.68-2.83,3-6.32,3s-6.31-1.37-6.31-3,2.82-3.05,6.31-3.05S226,247.16,226,248.84Z" transform="translate(-65.07 -121.39)"/><path class="cls-13" d="M191.8,272.67A114.21,114.21,0,0,0,144.54,317a91.51,91.51,0,0,0-11.45,32.25c-.55,4.06-.74,8.45,1.35,12,2.52,4.25,7.87,6.14,12.8,5.88,8.2-.44,15.3-5.79,21.06-11.64C189,334.4,198,301.56,191.8,272.67Z" transform="translate(-65.07 -121.39)"/><path class="cls-15" d="M181,311.05A9.59,9.59,0,0,0,177,296.18c-1.35-.55-3-1-3.39-2.41s1.11-2.75,2.57-2.85a8.24,8.24,0,0,1,4.13,1.26,6.47,6.47,0,0,0,4.18.94c2.82-.64,3.9-4.49,6.68-5.29,1.87-.53,3.84.55,5.16,2s2.19,3.2,3.46,4.67,3.13,2.67,5,2.33a7.9,7.9,0,0,0,3.16-1.72,6.54,6.54,0,0,1,3.22-1.57,2.38,2.38,0,0,1,2.65,1.9c.1,1.58-1.75,2.43-3.22,3-4.79,2-8.5,5.86-11.77,9.88s-6.29,8.32-10.32,11.57C184.78,318.69,182,314.89,181,311.05Z" transform="translate(-65.07 -121.39)"/><path class="cls-13" d="M133.49,356.47a186.55,186.55,0,0,1,47.27-46.36,11.79,11.79,0,0,1,9.67,8.69c-3.24,8.84-6.55,17.45-11.2,25.68s-10.8,15.88-18.87,21.16c-4.83,3.16-10.66,5.48-16.43,4.56S130.22,361.11,133.49,356.47Z" transform="translate(-65.07 -121.39)"/><path class="cls-18" d="M215.66,212.86a27.12,27.12,0,0,0-21.78,22.62,17.36,17.36,0,0,1-6.5-1.29c1.16-6.18,4.32-12.65,9.45-16.29S209.45,211.91,215.66,212.86Z" transform="translate(-65.07 -121.39)"/><ellipse class="cls-18" cx="125.21" cy="121.89" rx="10.53" ry="14.77"/><path class="cls-18" d="M211.76,264.32a25.77,25.77,0,0,1-10.26-4,26.41,26.41,0,0,1-11.49-20l1-.06a24.93,24.93,0,0,0,33,22l.33,1A26.06,26.06,0,0,1,211.76,264.32Z" transform="translate(-65.07 -121.39)"/><circle class="cls-18" cx="158.97" cy="140.95" r="1.95"/><rect class="cls-19" y="253.97" width="304.11" height="14.25"/></g><path class="cls-20" d="M274.81,366.76H384.63l19.49-68c1.86-6.49-1.9-11.75-8.39-11.75H309.42c-6.49,0-13.26,5.26-15.12,11.75Z" transform="translate(-65.07 -121.39)"/><path class="cls-20" d="M243.7,366.76H377.82A7.15,7.15,0,0,1,385,373.9v1.46a0,0,0,0,1,0,0H236.55a0,0,0,0,1,0,0V373.9A7.15,7.15,0,0,1,243.7,366.76Z" transform="translate(556.44 620.73) rotate(180)"/><path class="cls-9" d="M243.7,366.76H377.82A7.15,7.15,0,0,1,385,373.9v1.46a0,0,0,0,1,0,0H236.55a0,0,0,0,1,0,0V373.9A7.15,7.15,0,0,1,243.7,366.76Z" transform="translate(556.44 620.73) rotate(180)"/><path class="cls-9" d="M332.18,326.9c-1.2,4.16,1.21,7.53,5.36,7.53a10.79,10.79,0,0,0,9.69-7.53c1.19-4.15-1.21-7.52-5.37-7.52A10.78,10.78,0,0,0,332.18,326.9Z" transform="translate(-65.07 -121.39)"/><path class="cls-21" d="M313.14,172.36c-21.66,0-39.22,14-39.22,31.25a27.25,27.25,0,0,0,7.79,18.7L273.92,235l19.54-4.32a46.85,46.85,0,0,0,19.68,4.22c21.66,0,39.21-14,39.21-31.25S334.8,172.36,313.14,172.36Z" transform="translate(-65.07 -121.39)"/></g></g></svg>