<svg xmlns="http://www.w3.org/2000/svg" xmlns:xlink="http://www.w3.org/1999/xlink" viewBox="0 0 691.98 381.24"><defs><style>.cls-1,.cls-11,.cls-21,.cls-26,.cls-32,.cls-9{fill:none;}.cls-2{isolation:isolate;}.cls-3{fill:#eec9c3;}.cls-4{clip-path:url(#clip-path);}.cls-5{fill:#f27f97;}.cls-6{fill:#423a64;}.cls-7{fill:#ee3a4c;}.cls-8{fill:#60bec8;}.cls-11,.cls-9{stroke:#f9f9f9;}.cls-11,.cls-21,.cls-26,.cls-32,.cls-9{stroke-linecap:round;}.cls-11,.cls-32,.cls-9{stroke-miterlimit:10;}.cls-26,.cls-9{stroke-width:0.59px;}.cls-10{fill:url(#linear-gradient);}.cls-11{stroke-width:1.18px;}.cls-12{fill:url(#linear-gradient-2);}.cls-13{fill:url(#linear-gradient-3);}.cls-14{fill:url(#linear-gradient-4);}.cls-15{fill:url(#linear-gradient-5);}.cls-16{fill:url(#linear-gradient-6);}.cls-17{fill:url(#linear-gradient-7);}.cls-18,.cls-20,.cls-25,.cls-30,.cls-34{opacity:0.75;}.cls-18,.cls-20,.cls-24,.cls-25,.cls-28,.cls-30,.cls-34{mix-blend-mode:overlay;}.cls-18{fill:url(#linear-gradient-8);}.cls-19{fill:#fffaf0;}.cls-20{fill:url(#linear-gradient-9);}.cls-21{stroke:#ee3a4c;stroke-width:3.93px;}.cls-21,.cls-26{stroke-linejoin:round;}.cls-22{fill:#d37a57;}.cls-23{fill:#a61f48;}.cls-24,.cls-28{opacity:0.45;}.cls-24{fill:url(#linear-gradient-10);}.cls-25{fill:url(#linear-gradient-11);}.cls-26,.cls-32{stroke:#423f63;}.cls-27{fill:#ea9081;}.cls-28{fill:url(#linear-gradient-12);}.cls-29{fill:#fab217;}.cls-30{fill:url(#linear-gradient-13);}.cls-31{fill:#f2a887;}.cls-32{stroke-width:0.6px;}.cls-33{fill:#ef8c89;}.cls-34{fill:url(#linear-gradient-14);}</style><clipPath id="clip-path"><path class="cls-1" d="M12.11,306c31.29,86.39,149.24,93.27,248,46.64s237.07-.35,349-56.92S691.92,57.26,532.73,32.39,214.59,6.55,108.49,77.84C23.13,135.19-23.65,207.27,12.11,306Z"/></clipPath><linearGradient id="linear-gradient" x1="111.22" y1="259.75" x2="99.05" y2="191.89" gradientUnits="userSpaceOnUse"><stop offset="0" stop-color="#67b292"/><stop offset="1" stop-color="#7ac8a9"/></linearGradient><linearGradient id="linear-gradient-2" x1="142.76" y1="264.88" x2="135.27" y2="158.18" gradientUnits="userSpaceOnUse"><stop offset="0" stop-color="#60bec8"/><stop offset="1" stop-color="#79d7db"/></linearGradient><linearGradient id="linear-gradient-3" x1="196.83" y1="262.44" x2="215.55" y2="189.43" xlink:href="#linear-gradient"/><linearGradient id="linear-gradient-4" x1="579.25" y1="266.42" x2="622.3" y2="208.39" gradientUnits="userSpaceOnUse"><stop offset="0" stop-color="#60bec8"/><stop offset="0.97" stop-color="#79d7db"/></linearGradient><linearGradient id="linear-gradient-5" x1="551.2" y1="261.93" x2="578.81" y2="139.32" xlink:href="#linear-gradient"/><linearGradient id="linear-gradient-6" x1="531.99" y1="273.1" x2="499.7" y2="176.23" xlink:href="#linear-gradient"/><linearGradient id="linear-gradient-7" x1="555.8" y1="255.04" x2="526.78" y2="153.48" xlink:href="#linear-gradient-2"/><linearGradient id="linear-gradient-8" x1="182.33" y1="306.72" x2="182.33" y2="295.71" gradientUnits="userSpaceOnUse"><stop offset="0" stop-opacity="0"/><stop offset="1"/></linearGradient><linearGradient id="linear-gradient-9" x1="527.96" y1="306.72" x2="527.96" y2="295.71" xlink:href="#linear-gradient-8"/><linearGradient id="linear-gradient-10" x1="520.24" y1="225.31" x2="496.96" y2="215.6" gradientUnits="userSpaceOnUse"><stop offset="0"/><stop offset="0.63" stop-opacity="0"/></linearGradient><linearGradient id="linear-gradient-11" x1="553.26" y1="236.5" x2="570.92" y2="277.8" xlink:href="#linear-gradient-10"/><linearGradient id="linear-gradient-12" x1="538.35" y1="143.85" x2="541.56" y2="149.82" xlink:href="#linear-gradient-10"/><linearGradient id="linear-gradient-13" x1="206.22" y1="221.22" x2="150.08" y2="238.56" xlink:href="#linear-gradient-10"/><linearGradient id="linear-gradient-14" x1="196.02" y1="142.49" x2="187.87" y2="149.17" xlink:href="#linear-gradient-10"/></defs><title>Ativo 2</title><g class="cls-2"><g id="Camada_2" data-name="Camada 2"><g id="OBJECTS"><path class="cls-3" d="M12.11,306c31.29,86.39,149.24,93.27,248,46.64s237.07-.35,349-56.92S691.92,57.26,532.73,32.39,214.59,6.55,108.49,77.84C23.13,135.19-23.65,207.27,12.11,306Z"/><g class="cls-4"><rect class="cls-5" x="390.88" y="286.69" width="25.64" height="9.03"/><rect class="cls-5" x="404.69" y="297.7" width="25.64" height="9.03"/><rect class="cls-5" x="390.88" y="308.71" width="25.64" height="9.03"/><rect class="cls-5" x="377.07" y="297.7" width="25.64" height="9.03"/><rect class="cls-5" x="418.5" y="308.71" width="25.64" height="9.03"/><rect class="cls-5" x="228.03" y="298.08" width="25.64" height="9.03"/><rect class="cls-5" x="241.85" y="309.09" width="25.64" height="9.03"/><rect class="cls-5" x="228.03" y="320.1" width="25.64" height="9.03"/><rect class="cls-5" x="214.22" y="309.09" width="25.64" height="9.03"/><rect class="cls-5" x="306.89" y="127.5" width="25.64" height="9.03"/><rect class="cls-5" x="320.71" y="138.51" width="25.64" height="9.03"/><rect class="cls-5" x="306.89" y="149.52" width="25.64" height="9.03"/><rect class="cls-5" x="279.27" y="149.52" width="25.64" height="9.03"/><rect class="cls-5" x="293.08" y="138.51" width="25.64" height="9.03"/><rect class="cls-5" x="47.61" y="313.6" width="25.64" height="9.03"/><rect class="cls-5" x="61.43" y="324.61" width="25.64" height="9.03"/><rect class="cls-5" x="47.61" y="335.62" width="25.64" height="9.03"/><rect class="cls-5" x="19.99" y="335.62" width="25.64" height="9.03"/><rect class="cls-5" x="47.61" y="357.65" width="25.64" height="9.03"/><rect class="cls-5" x="19.99" y="357.65" width="25.64" height="9.03"/><rect class="cls-5" x="33.8" y="324.61" width="25.64" height="9.03"/><rect class="cls-5" x="61.43" y="346.63" width="25.64" height="9.03"/><rect class="cls-5" x="89.05" y="346.63" width="25.64" height="9.03"/><rect class="cls-5" x="33.8" y="346.63" width="25.64" height="9.03"/><rect class="cls-5" x="652.52" y="137.39" width="25.64" height="9.03"/><rect class="cls-5" x="666.34" y="148.4" width="25.64" height="9.03"/><rect class="cls-5" x="652.52" y="159.41" width="25.64" height="9.03"/><rect class="cls-5" x="624.9" y="159.41" width="25.64" height="9.03"/><rect class="cls-5" x="652.52" y="181.43" width="25.64" height="9.03"/><rect class="cls-5" x="624.9" y="181.43" width="25.64" height="9.03"/><rect class="cls-5" x="638.71" y="148.4" width="25.64" height="9.03"/><rect class="cls-5" x="666.34" y="170.42" width="25.64" height="9.03"/><rect class="cls-5" x="638.71" y="170.42" width="25.64" height="9.03"/><rect class="cls-5" x="624.9" y="170.42" width="11.83" height="9.03"/></g><rect class="cls-6" x="87.76" width="189.14" height="258.06"/><rect class="cls-7" x="87.76" width="189.14" height="58.86"/><rect class="cls-5" x="157.73" y="-58.59" width="49.2" height="176.04" transform="translate(211.76 -152.9) rotate(90)"/><rect class="cls-7" x="179.14" y="2.01" width="6.55" height="54.85"/><path class="cls-8" d="M127.64,218.49S73.41,198,78.56,115.15c0,0,39.36,14.82,49.21,50.31C137.32,199.84,127.64,218.49,127.64,218.49Z"/><path class="cls-9" d="M82.81,122s38.66,38.71,44.83,96.52"/><polyline class="cls-9" points="80.62 135.18 94.03 135.43 96.45 126.99"/><polyline class="cls-9" points="82.34 146.62 101.73 146.67 105.56 135.2"/><polyline class="cls-9" points="85.96 161 109.6 160.32 116.02 147.25"/><path class="cls-9" d="M91.76,176.72s25-.85,24.94-1.07S124,162.56,124,162.56"/><polyline class="cls-9" points="104.71 197.63 123.11 194.57 129.81 182.72"/><path class="cls-10" d="M88.34,258.06c3.37-32.91-1.81-42.49-9.59-61.93s8-35.17,24.27-20.46c15.89,14.38,28.85,42,25.74,82.39Z"/><path class="cls-11" d="M97.84,196.74s16.76,26.08,10.54,61.32"/><path class="cls-12" d="M129.07,258.06c-14.69-36.45-2.77-50.61-9.68-80.84s-22.8-56.81,1.21-65.11,54.07,65.46,40.25,146Z"/><path class="cls-11" d="M129.24,143s24.09,64,13.73,115"/><path class="cls-8" d="M219,260.1s-17-41,32-81.63c0,0,12.37,29.76-2.29,53.88C234.51,255.72,219,260.1,219,260.1Z"/><path class="cls-9" d="M249.42,184.42s-1.34,41.9-30.4,75.68"/><polyline class="cls-9" points="240.89 190.13 247.78 197.75 253.77 194.68"/><polyline class="cls-9" points="235.41 197.09 245.55 207.95 253.96 204.07"/><polyline class="cls-9" points="229.27 206.66 242.05 219.51 252.72 216.24"/><path class="cls-9" d="M223.53,218.14s13.61,13.54,13.68,13.38,11.16-2.78,11.16-2.78"/><polyline class="cls-9" points="218.64 236.35 230.01 245.02 240.14 242.54"/><path class="cls-13" d="M183.8,258.06c-4.32-35.68,10.41-77.56,26.45-95.18s37.63-17.79,31.59,1.21-24,34-21.25,94Z"/><path class="cls-11" d="M224.91,166.67s-26.95,42-23.66,91.39"/><path class="cls-11" d="M73.25,227.4s12.26,11.35,15.21,32.09"/><path class="cls-11" d="M247.33,261.51a48.85,48.85,0,0,1,22.32-25.16"/><rect class="cls-6" x="433.39" width="189.14" height="258.06"/><rect class="cls-7" x="433.39" width="189.14" height="58.86"/><rect class="cls-5" x="503.36" y="-58.59" width="49.2" height="176.04" transform="translate(557.39 -498.53) rotate(90)"/><rect class="cls-7" x="524.77" y="2.01" width="6.55" height="54.85"/><path class="cls-8" d="M514,272.82s-43.8-7.4-52.16-70.46c0,0,31.79,5.33,44.43,30.56C518.51,257.37,514,272.82,514,272.82Z"/><path class="cls-9" d="M466,206.86s34.79,23.4,48,66"/><polyline class="cls-9" points="466.33 217.12 476.45 215.33 477.02 208.62"/><polyline class="cls-9" points="469.31 225.46 483.9 222.63 485.08 213.45"/><polyline class="cls-9" points="474.16 235.74 491.83 231.74 494.73 220.96"/><path class="cls-9" d="M480.83,246.71s18.71-4.34,18.61-4.49S503,231.3,503,231.3"/><polyline class="cls-9" points="493.66 260.52 507.05 255.5 510.33 245.6"/><path class="cls-8" d="M578.38,230.75s49.16-13.67,51.2-86.69c0,0-35.67,9.87-47.11,40.2C571.38,213.64,578.38,230.75,578.38,230.75Z"/><path class="cls-9" d="M625.32,149.7s-37,30.86-46.94,81.05"/><polyline class="cls-9" points="626.19 161.45 614.42 160.61 612.97 153.02"/><polyline class="cls-9" points="623.77 171.34 606.78 169.85 604.33 159.49"/><polyline class="cls-9" points="619.46 183.66 598.8 181.19 594.21 169.23"/><path class="cls-9" d="M613.14,197s-21.88-2.73-21.78-2.91S586,182,586,182"/><polyline class="cls-9" points="600.13 214.28 584.25 210.14 579.31 199.22"/><path class="cls-14" d="M569.16,258.06c3.45-28.5,37.4-68.62,58.73-55.7,19.69,11.92-13.82,26.16-15.72,55.7Z"/><path class="cls-11" d="M611.48,221s-19.69,15.16-20.38,37.1"/><path class="cls-15" d="M532.78,258.06c1.3-42,23.06-68.78,29.28-108.36s4.54-47.75,23.45-48.14,11.4,64.26-12.5,156.5Z"/><path class="cls-11" d="M577.87,133.25c2.59,30.24-25.63,81.28-24.73,124.81"/><path class="cls-11" d="M616,135s-30.37,14.2-35.87,42.08"/><path class="cls-11" d="M617.3,258.06s.55-15,16.43-24.1"/><path class="cls-16" d="M506.93,258.14c.26-22.8-25.22-60.39-21.81-91.6s22.07-18.58,26.73,8.14,34.18,43.56,26.42,83.46Z"/><path class="cls-11" d="M500.13,177.15c-.45,22.44,26.49,53.27,20.79,80.73"/><path class="cls-17" d="M533.5,258.14c-1.56-30.31-18.4-68.82-25.65-94.13s-1.81-46.56,14-47.33,16,49.79,32.49,70.5,22.18,70.7,22.18,70.7Z"/><path class="cls-11" d="M521.84,148.21c3.36,24,38.61,66.92,30.31,109.93"/><rect class="cls-18" x="73.25" y="295.71" width="218.16" height="11.01"/><rect class="cls-19" x="73.25" y="258.06" width="218.16" height="37.66"/><rect class="cls-19" x="418.89" y="258.06" width="218.16" height="37.66"/><rect class="cls-20" x="418.89" y="295.71" width="218.16" height="11.01"/><path class="cls-19" d="M244.13,68.83s41.75-21.16,123.28-20.12,130,17,130,17S460.78,93.75,478,131.51c0,0-99.72-41.28-216-4.52,0,0,7-16.4,3.67-32.81S244.13,68.83,244.13,68.83Z"/><path class="cls-7" d="M321.57,93q-5.58.84-11.13,1.88c-.42,1.8-.83,3.61-1.23,5.41q-2.08.4-4.17.84,2.67-11.79,6-23.56c1.43-.25,2.85-.49,4.28-.72q7,10,13.43,20.28c-1.42.19-2.85.38-4.27.59C323.55,96.18,322.56,94.61,321.57,93Zm-1.87-3q-2.85-4.42-5.83-8.8-1.37,5.11-2.61,10.22C314.07,91,316.89,90.52,319.7,90.08Z"/><path class="cls-7" d="M352.8,85.51a5.37,5.37,0,0,1,1.27,3.42,5.08,5.08,0,0,1-2,4.52,11.62,11.62,0,0,1-6.36,2q-5.49.42-11,1-1.22-10.93-2.42-21.87,5.51-.61,11.05-1a11.22,11.22,0,0,1,6.53,1.08,4.77,4.77,0,0,1,2.47,4.07,5.32,5.32,0,0,1-.64,2.93,5.43,5.43,0,0,1-2.05,2.07A6,6,0,0,1,352.8,85.51ZM337,77.32c.2,2,.4,4,.59,6,2-.2,4-.38,6-.54a6.37,6.37,0,0,0,3.37-1,2.71,2.71,0,0,0-.31-4.51,6.4,6.4,0,0,0-3.54-.51Q340.08,77,337,77.32Zm12.83,11.43c-.13-2.11-1.83-3.08-5.1-2.83-2.28.18-4.55.38-6.83.6.21,2.11.42,4.21.62,6.32,2.23-.22,4.46-.41,6.69-.59C348.42,92,350,90.87,349.83,88.75Z"/><path class="cls-7" d="M366.15,93.38a11.22,11.22,0,0,1-4.39-4A11,11,0,0,1,360,83.66a10.58,10.58,0,0,1,1.45-5.85,10.93,10.93,0,0,1,4.45-4.14,13.78,13.78,0,0,1,6.51-1.47,13.6,13.6,0,0,1,6.49,1.57A10.87,10.87,0,0,1,383.3,78a10.5,10.5,0,0,1,1.37,5.88,10.91,10.91,0,0,1-1.83,5.74,11.4,11.4,0,0,1-4.44,3.9,14.05,14.05,0,0,1-12.25-.09Zm10.18-3.07a7.39,7.39,0,0,0,2.9-2.7,7.86,7.86,0,0,0,1.16-3.94,7.56,7.56,0,0,0-.94-4,7.15,7.15,0,0,0-2.86-2.83,9.18,9.18,0,0,0-8.41-.06,7.22,7.22,0,0,0-2.9,2.79,7.65,7.65,0,0,0-1,4,7.85,7.85,0,0,0,1.11,4,7.33,7.33,0,0,0,2.85,2.73,8.9,8.9,0,0,0,8.08.06Z"/><path class="cls-7" d="M394.24,93.17c-1.59-1.83-2.29-4.33-2.08-7.51q.42-6.19.83-12.39c1.46.1,2.93.21,4.39.33q-.5,6.11-1,12.22c-.34,4.31,1.38,6.59,5.15,7s5.87-1.54,6.38-5.84q.7-6.09,1.4-12.18l4.31.53q-.79,6.15-1.58,12.32c-.41,3.16-1.59,5.47-3.49,7a11.68,11.68,0,0,1-14.33-1.4Z"/><path class="cls-7" d="M426.84,80.75c-2.56-.43-5.13-.84-7.7-1.21l.51-3.43q9.94,1.47,19.84,3.51c-.23,1.13-.47,2.26-.7,3.39q-3.82-.8-7.65-1.5-1.68,9.12-3.35,18.25c-1.35-.25-2.71-.49-4.06-.72Q425.28,89.89,426.84,80.75Z"/><line class="cls-21" x1="244.13" y1="68.83" x2="296.64" y2="240.17"/><line class="cls-21" x1="497.4" y1="65.68" x2="446.76" y2="237.59"/><path class="cls-22" d="M459.22,173c.52-2.55,10.4,2.47,9.89,4.69S458.82,175,459.22,173Z"/><path class="cls-22" d="M470.48,175.34c-.94,1.8-12.05-3-10.75-5.76S471.55,173.32,470.48,175.34Z"/><path class="cls-22" d="M461,166.68c1.1-2.59,12.09,4.34,11.21,7.07C471.53,175.75,459.87,169.27,461,166.68Z"/><path class="cls-22" d="M462.73,164.13c1.1-2.6,11.65,4.18,10.77,6.91C472.85,173,461.63,166.72,462.73,164.13Z"/><path class="cls-22" d="M474.8,171c-1.38-2.36-1.63-9.1-3.12-9.68s-2.68,3.73-2.22,6.15a8.43,8.43,0,0,0,2.57,4.24Z"/><path class="cls-23" d="M519.07,200.09,520.15,159a28.54,28.54,0,0,0-5.75,9.07c-2.64,6.78-5.79,17.68-8.11,26.18A46.08,46.08,0,0,0,519.07,200.09Z"/><path class="cls-22" d="M506.29,194.25h0c-1.93,7.08-3.29,12.51-3.29,12.51-4.66-7.09-30.57-38.69-30.57-38.69l-6.22,5.35s3.11,14.34,16.07,41.28,28.32,31.06,28.32,31.06l7.43-6,1-39.66C519.05,200.88,506.29,194.25,506.29,194.25Z"/><path class="cls-24" d="M515.12,198.64c-.58.94-9.76,16-16.85,39,7,6.65,12.33,8.08,12.33,8.08l7.43-6,1-37.17-3.73-3.86Z"/><path class="cls-23" d="M578.66,184.47c-4.29-17.61-10.28-26.94-17.67-31.66h0l-12.21,1.61L529.69,152a32.5,32.5,0,0,0-9.54,7c-2.46,18.32-8.07,61.72-9.55,86.76l-1,12.3H588S585.4,212.11,578.66,184.47Z"/><path class="cls-25" d="M588,258.06s-1.16-20.44-3.92-42.25c-17.94,18.9-45.69,34.41-61.25,42.25Z"/><path class="cls-22" d="M563.33,195.12a53.33,53.33,0,0,1-2.46,17.47c-7.52,25.52-45.6,35.1-45.6,35.1-16.07-1.94-20.86,10.37-20.86,10.37h39.25c19.69-4.54,51.09-20.78,55.19-46.9a60.29,60.29,0,0,0-.73-24.07Z"/><path class="cls-23" d="M561.59,153.2c-9.51-5.62-17.3,5-10.83,14.56,4.74,7,12,14.09,12.57,27.36a54.91,54.91,0,0,0,24.79-8C583.94,170.23,572.25,159.5,561.59,153.2Z"/><path class="cls-22" d="M561,152.81a29.13,29.13,0,0,0-13.94-4.26A33.79,33.79,0,0,0,529.69,152C534.64,155.19,545.51,159.81,561,152.81Z"/><path class="cls-7" d="M536.85,141.83c-26.25-3.28-30-25.38-17.26-44.71s51.48-13.92,57,5.85c7,25.14-10.34,41.64-28.45,42.55Z"/><path class="cls-22" d="M537.5,153.38l-.45-7.58s-11.91-.45-11.69-12.76a44.76,44.76,0,0,1,4.35-18.11s9.73,9.63,22.3,7.94c0,0,6.67-8.42,10.56-1.81s-3.18,19.37-10.5,16.19l-.38,16.47Z"/><path class="cls-26" d="M555.31,124.23s2.5-1.69,5.31,1"/><path class="cls-26" d="M556.67,128.57a7.89,7.89,0,0,0,1.3-4.8"/><path class="cls-26" d="M536.85,125.66s-1.42,3.91-3.28,5.76a2.85,2.85,0,0,0,3.28.56"/><path class="cls-26" d="M527.4,125.66s2.72-3.18,6.17.15"/><path class="cls-26" d="M550.69,127.54s-2.72-3.18-6.18.15"/><path class="cls-27" d="M550.93,137.77a5.18,5.18,0,1,0-5.18,5.18A5.18,5.18,0,0,0,550.93,137.77Z"/><path class="cls-27" d="M526.69,129.92a4.91,4.91,0,0,0-1.16.15c-.09,1-.15,2-.17,3a13,13,0,0,0,1.75,7.21,5.17,5.17,0,0,0-.42-10.33Z"/><path class="cls-28" d="M543.09,145.52s-1.29.39-6,.28l.18,3.12h0A8.94,8.94,0,0,0,543.09,145.52Z"/><path class="cls-29" d="M131.59,258.06c-.53-38.22,17.79-109.55,43-111.49s21.84,78.91,35.93,111.49Z"/><path class="cls-30" d="M196.58,188.79l-30.72,6.75c.79,19.74-4,48.79,10.22,62.52h34.41C203.39,241.63,200.71,213,196.58,188.79Z"/><path class="cls-7" d="M182.75,140.76c0-4.16-10.83-10.87-11.43-17.85a15.33,15.33,0,0,1,3.37-11.21s-.86-11.22,6.14-12.81,8.85-9.18,19.55-8.78,22.85,9.77,14.73,23.84c0,0,.93,8.65-7.07,9.91s-18.49,16.9-18.49,16.9Z"/><path class="cls-31" d="M179.77,149l6-16.73s-8.77-4.4-5-12.15,8.9,1.67,11.71,4.4,3.79.7,4.14-1.15a24.13,24.13,0,0,0,0-5.28s7.05,1.5,11.54,0c0,0,5.69,9.73,3.13,19.33S196,145.52,196,145.52L191,157.76Z"/><path class="cls-32" d="M183,123.53a4.07,4.07,0,0,1,4.63-.86"/><path class="cls-32" d="M186.45,126.5a5.65,5.65,0,0,1-1.12-4.16"/><path class="cls-32" d="M202.89,125.64s3.57-2,5.68.86"/><path class="cls-33" d="M207.61,136a5.62,5.62,0,1,0-5.61,5.61A5.62,5.62,0,0,0,207.61,136Z"/><path class="cls-34" d="M188.53,142.9a12.69,12.69,0,0,0,5.78,6.71l1.65-4.09A12.27,12.27,0,0,1,188.53,142.9Z"/><path class="cls-31" d="M292.91,205.31c-2.46-3.08-10.21.35-10.21.35s.26-8.19-1.41-8-2.47,3.79-3.17,6.78-3.7,7.92-3.7,7.92-33.29,15.33-55.21,2.12c-4.15-2.5-7.23-6.56-9.72-11.5h0l-29.72,22c11.25,13.34,28,20.14,49.08,20.53,28.79.53,50.52-22.79,50.52-22.79s13.37-1.43,15.39-4.42S295.38,208.39,292.91,205.31Z"/><path class="cls-29" d="M209.49,203c-10.68-21.2-10.3-58.47-34.93-56.4-18.84,1.59-12.68,40.69-4.93,60.94A60.07,60.07,0,0,0,179.77,225C194.82,216,204,208.47,209.49,203Z"/></g></g></g></svg>