<svg xmlns="http://www.w3.org/2000/svg" width="237" height="63.146" viewBox="0 0 237 63.146"><defs><style>.a{fill:#fff;}.b{fill:#ebebeb;font-size:10px;font-family:Nunito-Regular, Nunito;}</style></defs><g transform="translate(-7 -17.347)"><g transform="translate(-283.167 -305.843)"><path class="a" d="M321.74,323.19a31.573,31.573,0,1,0,31.573,31.573A31.574,31.574,0,0,0,321.74,323.19Zm0,58.723a27.148,27.148,0,1,1,27.15-27.148v0A27.147,27.147,0,0,1,321.738,381.913Z"/><path class="a" d="M330.73,330.829a23.749,23.749,0,0,0-26.319,39.539l-3.261-25a1.933,1.933,0,0,1,3.3-1.587l3.6,3.745.859-3.38a1.933,1.933,0,0,1,3.489-.571l2.993,4.618a7.349,7.349,0,0,1,7.536,2.576l9.432-.981c.052,0,.1-.009.155-.009a1.93,1.93,0,0,1,1.975,1.887,15.639,15.639,0,0,1-13.363,16.1l.805,6.164v.011a23.748,23.748,0,0,0,8.794-43.114Zm-10.7,3.345a18.506,18.506,0,0,0-10.267,3.094,1.668,1.668,0,0,1-.932.281,1.688,1.688,0,0,1-.938-3.092,21.851,21.851,0,0,1,12.137-3.65V330.8a1.689,1.689,0,1,1,0,3.377Zm12.773,2.1a1.689,1.689,0,0,1-2.342.472,18.405,18.405,0,0,0-4.316-2.121c-.043-.013-.086-.028-.129-.043a1.688,1.688,0,0,1,1.2-3.154,21.861,21.861,0,0,1,5.106,2.508l.006,0A1.689,1.689,0,0,1,332.8,336.279Z" transform="translate(4.191 4.195)"/></g><g transform="translate(-1 -5)"><g transform="translate(-144.292 -350.483)"><path class="a" d="M229.711,406.157a1.927,1.927,0,0,0,1.934,1.934h4.688a1.98,1.98,0,0,1,1.966,1.965v.033a1.8,1.8,0,0,1-.58,1.369,1.888,1.888,0,0,1-1.386.58h-4.688a5.888,5.888,0,0,1-5.882-5.881V388.819a1.953,1.953,0,0,1,1.95-1.95h.048a1.953,1.953,0,0,1,1.95,1.95Z"/><path class="a" d="M255.911,396.2a8.941,8.941,0,0,1,2.723,6.559v7.332a1.8,1.8,0,0,1-.58,1.369,1.871,1.871,0,0,1-1.369.58h-.049a1.87,1.87,0,0,1-1.369-.58,1.8,1.8,0,0,1-.58-1.369,6.979,6.979,0,0,1-5.334,1.949,9.281,9.281,0,1,1,6.558-15.84Zm-10.345,2.788a5.35,5.35,0,1,0,3.787-1.563A5.166,5.166,0,0,0,245.566,398.986Z"/><path class="a" d="M264.435,391.381a2.248,2.248,0,1,1,1.579-3.835,2.2,2.2,0,0,1,0,3.174A2.153,2.153,0,0,1,264.435,391.381Zm.016,2.1a1.805,1.805,0,0,1,1.37.58,1.887,1.887,0,0,1,.58,1.385v14.648a1.981,1.981,0,0,1-1.95,1.949h-.032a1.891,1.891,0,0,1-1.386-.58,1.8,1.8,0,0,1-.58-1.369V395.441a1.98,1.98,0,0,1,1.966-1.965Z"/><path class="a" d="M272.234,386.869a1.953,1.953,0,0,1,1.95,1.95v11.166h.612a5.214,5.214,0,0,0,3.593-1.369,5.162,5.162,0,0,0,1.708-3.385,1.923,1.923,0,0,1,.645-1.24,1.836,1.836,0,0,1,1.3-.515h.048a1.849,1.849,0,0,1,1.434.644,1.877,1.877,0,0,1,.516,1.3,1.456,1.456,0,0,1-.016.21,8.089,8.089,0,0,1-3.094,6.058,8.054,8.054,0,0,1,2.61,2.949,9.067,9.067,0,0,1,1.241,4.625v.822a1.8,1.8,0,0,1-.58,1.369,1.872,1.872,0,0,1-1.37.58h-.048a1.874,1.874,0,0,1-1.37-.58,1.808,1.808,0,0,1-.58-1.369v-.822a5.309,5.309,0,0,0-5.333-5.3h-1.321v6.123a1.808,1.808,0,0,1-.58,1.369,1.874,1.874,0,0,1-1.37.58h-.048a1.872,1.872,0,0,1-1.37-.58,1.8,1.8,0,0,1-.58-1.369v-21.27a1.953,1.953,0,0,1,1.95-1.95Z"/><path class="a" d="M303.364,396.2a8.942,8.942,0,0,1,2.724,6.559v7.332a1.8,1.8,0,0,1-.58,1.369,1.874,1.874,0,0,1-1.37.58h-.048a1.87,1.87,0,0,1-1.37-.58,1.8,1.8,0,0,1-.58-1.369,6.976,6.976,0,0,1-5.333,1.949,9.281,9.281,0,1,1,6.557-15.84Zm-10.344,2.788a5.349,5.349,0,1,0,3.787-1.563A5.167,5.167,0,0,0,293.02,398.986Z"/><path class="a" d="M324.618,387.256a1.785,1.785,0,0,1,1.483,1.886v.047a1.864,1.864,0,0,1-.774,1.547,1.792,1.792,0,0,1-1.128.4,2.323,2.323,0,0,1-.532-.065,8.838,8.838,0,0,0-2.175-.274,8.645,8.645,0,1,0,0,17.29,9.324,9.324,0,0,0,2.175-.258,2.32,2.32,0,0,1,.532-.064,1.79,1.79,0,0,1,1.128.4,1.837,1.837,0,0,1,.774,1.547v.032a1.793,1.793,0,0,1-1.483,1.9,12.7,12.7,0,0,1-3.126.387,12.585,12.585,0,0,1,0-25.169A12.7,12.7,0,0,1,324.618,387.256Z"/><path class="a" d="M337.477,393.476a9.3,9.3,0,1,1-6.559,2.722A8.942,8.942,0,0,1,337.477,393.476Zm0,3.98a5.336,5.336,0,1,0,3.77,1.563A5.159,5.159,0,0,0,337.477,397.456Z"/><path class="a" d="M365.626,386.869a1.953,1.953,0,0,1,1.95,1.95v13.987a9.276,9.276,0,1,1-9.281-9.33,7.855,7.855,0,0,1,5.333,1.611v-6.268a1.953,1.953,0,0,1,1.95-1.95Zm-11.118,12.15a5.349,5.349,0,1,0,3.787-1.563A5.185,5.185,0,0,0,354.508,399.019Z"/><path class="a" d="M388.023,398.89a1.837,1.837,0,0,1,.065,1.5,1.843,1.843,0,0,1-1.031,1.1l-5.93,2.676q-4.56,2.063-5.35,2.433a4.577,4.577,0,0,0,3.82,1.547,5.348,5.348,0,0,0,5.043-3.593,1.821,1.821,0,0,1,1.869-1.322,1.864,1.864,0,0,1,1.6.838,1.819,1.819,0,0,1,.371,1.08,2.021,2.021,0,0,1-.129.693,8.885,8.885,0,0,1-3.335,4.447,9.267,9.267,0,1,1,3.012-11.392Zm-8.426-1.434a5.309,5.309,0,0,0-5.334,5.35v.112l9.008-4.044A4.534,4.534,0,0,0,379.6,397.456Z"/></g><text class="b" transform="translate(149 76)"><tspan x="0" y="0">SOFTWARE STUDIO</tspan></text></g></g></svg>