<svg xmlns="http://www.w3.org/2000/svg" xmlns:xlink="http://www.w3.org/1999/xlink" width="648.155" height="438.849" viewBox="0 0 648.155 438.849"><defs><style>.a,.h,.j,.l{fill:none;}.b{clip-path:url(#a);}.c{fill:#d3eadd;}.d{fill:#423a64;}.e{fill:#ee3a4c;}.f{fill:#d37a57;}.g,.q,.r,.t{opacity:0.45;}.g{fill:url(#b);}.h{stroke:#9f9fff;stroke-width:1.5px;}.h,.j,.l{stroke-linecap:round;stroke-linejoin:round;}.i{fill:#ea9081;}.j{stroke:#423f63;}.j,.l{stroke-width:0.75px;}.k{fill:#f9bb30;}.l{stroke:#ee3a4c;}.m{fill:#70cacc;}.n{fill:#f58723;}.o{fill:#f1a786;}.p{fill:#ef8c89;}.q{fill:url(#c);}.r{fill:url(#d);}.s{fill:#a61f48;}.t{fill:url(#e);}.u{fill:#f9b458;}.v{fill:#f49351;}</style><clipPath id="a"><rect class="a" width="648.155" height="438.849"/></clipPath><linearGradient id="b" x1="0.058" y1="0.201" x2="0.67" y2="0.533" gradientUnits="objectBoundingBox"><stop offset="0"/><stop offset="1" stop-opacity="0"/></linearGradient><linearGradient id="c" x1="0.997" y1="0.219" x2="0.32" y2="0.536" xlink:href="#b"/><linearGradient id="d" x1="0.429" y1="0.902" x2="0.529" y2="0.22" xlink:href="#b"/><linearGradient id="e" x1="0.499" y1="0.582" x2="0.589" y2="0.929" xlink:href="#b"/></defs><g class="b" transform="translate(0 0)"><g transform="translate(15.41 17.604)"><path class="c" d="M278.92,517.792s-75.828-139.132,4.689-207.3,174.349-18.276,237.475-60.119,130.461-150.06,247.334-81.764,56.7,349.178,56.7,349.178Z" transform="translate(-184.046 -96.547)"/><g transform="translate(170.789 57.358)"><path class="d" d="M446.609,240.867l-29.742,11.072-27.339,3.179h0c-26.618,20.214-55.132,60.251-56.583,101.213-1.888,53.319-6.853,88.413-6.853,88.413H469.3l13.369-155.831S479.43,249.079,446.609,240.867Z" transform="translate(-326.092 -119.817)"/><g transform="translate(1.854)"><path class="e" d="M407.22,263.96c-11.783,6.584-49.7,16.148-71.7-17.58-24.059-36.877,9.587-87.44,49.867-93.426,42.478-6.313,71.114,17.749,67.066,57.174C447.759,255.861,407.22,263.96,407.22,263.96Z" transform="translate(-327.454 -151.952)"/><g transform="translate(37.703 55.019)"><path class="f" d="M391.943,267.605l-7.816-22.123s-10.822,7.093-20.08-4.088-8.9-35.711-8.9-35.711,12.232-2.5,18.4-13.317c0,0,17.92,7.786,30.784,5.141,0,0,11.181-10.942,16.952,1.323s-.377,22.819-8.785,22.291,7.7,39.632,7.7,39.632Z" transform="translate(-355.148 -192.365)"/><path class="g" d="M385.747,227.489a54.385,54.385,0,0,1-9.313,5.3l2.072,5.862C386.669,233.592,385.747,227.489,385.747,227.489Z" transform="translate(-347.454 -179.671)"/></g><g transform="translate(33.711 54.598)"><ellipse class="h" cx="11.273" cy="12.174" rx="11.273" ry="12.174" transform="translate(0 9.379)"/><ellipse class="h" cx="11.273" cy="12.174" rx="11.273" ry="12.174" transform="translate(29.666)"/><path class="h" d="M368.425,206.149a5.688,5.688,0,0,1,8.106-2.254" transform="translate(-346.357 -188.103)"/></g><g transform="translate(41.365 80.811)"><circle class="i" cx="9.018" cy="9.018" r="9.018" transform="translate(27.963)"/><path class="i" d="M365.387,217.934a9.006,9.006,0,0,0-7.549,4.092,31.432,31.432,0,0,0,5.237,10.126A19.8,19.8,0,0,0,367,235.818a9.014,9.014,0,0,0-1.613-17.884Z" transform="translate(-357.838 -208.916)"/></g><g transform="translate(42.395 65.014)"><path class="j" d="M371.8,204.443s-1.834,7.906-.931,13.407l6.853-1.263" transform="translate(-354.247 -197.995)"/><path class="j" d="M358.594,209.668s1.8-5.109,7.575-3.066" transform="translate(-358.594 -197.389)"/><path class="j" d="M378.819,202.908s2.344-5.049,8.416-2.464" transform="translate(-351.284 -199.707)"/><g transform="translate(49.809 0)"><path class="j" d="M395.18,201.308s4.96.818,8.207-1.6" transform="translate(-395.18 -199.707)"/><path class="j" d="M397.763,207.347s1.684-2.214.775-6.5" transform="translate(-394.246 -199.295)"/></g></g><path class="f" d="M429.768,241.258c-9.019-2.257-20.269-2.131-34.305,1.875-6.889,1.966-14.747,6.28-22.775,12.377C382.7,258.194,411.154,263.287,429.768,241.258Z" transform="translate(-311.106 -120.208)"/></g><path class="k" d="M496.34,229.419l-5.978,37.129a15.37,15.37,0,0,0-6.806-2.8,16.956,16.956,0,1,0-5.391,33.481,15.374,15.374,0,0,0,7.339-.517l-6,37.236-36.532-5.883a16.766,16.766,0,0,1,.1,5.54,16.963,16.963,0,0,1-33.495-5.394,16.751,16.751,0,0,1,1.834-5.228l-36.44-5.868,16.833-104.53Z" transform="translate(-308.424 -130.037)"/><path class="f" d="M335.326,382.77c11.67,12.235,26.693-8.838,34.99-38.777a335.208,335.208,0,0,1,21.1-55.191s14.428-2.434,14.52-5.141-8.207-.63-8.207-.63,14.7-5.412,14.428-8.3S398,277.71,398,277.71s15.782-6.764,15.6-9.2-14.789,3.066-14.789,3.066,12.714-5.049,12.624-7.485-12.806,1.533-12.806,1.533,1.7-10.117-.32-10.469-6.533,12.995-6.533,12.634-34.324,27.3-47.976,53.837S324.143,371.047,335.326,382.77Z" transform="translate(-324.865 -114.655)"/><path class="f" d="M444.621,295.381s-4.015-20.611-.813-21.735,5.357,12.622,5.357,12.622.732-17.543,2.915-17.768,3.887,16.868,3.887,16.868,2.144-18.9,5.143-18.714.753,18.841.753,18.841,5.826-18.069,7.813-17.1-2.263,18.894-2.263,18.894,7.8-1.44,8.513.652-7.695,7.47-10.275,8.273c0,0-1.331,121.716-26.862,125.425S423.42,337.79,444.621,295.381Z" transform="translate(-290.821 -110.498)"/></g><g transform="translate(0 0)"><rect class="l" width="21.403" height="21.403" transform="translate(0 339.806) rotate(-45)"/><rect class="j" width="21.403" height="21.403" transform="matrix(0.866, -0.5, 0.5, 0.866, 503.461, 50.354)"/><path class="j" d="M312.3,316.353a4.337,4.337,0,1,0-4.337,4.337A4.339,4.339,0,0,0,312.3,316.353Z" transform="translate(-163.425 -36.744)"/><path class="l" d="M658.15,222.242a4.337,4.337,0,1,0-4.337,4.337A4.337,4.337,0,0,0,658.15,222.242Z" transform="translate(-38.427 -70.757)"/><circle class="j" cx="4.201" cy="4.201" r="4.201" transform="translate(398.651 18.365)"/><rect class="l" width="5.23" height="26.693" transform="matrix(0.832, -0.554, 0.554, 0.832, 97.235, 199.268)"/><rect class="j" width="5.23" height="26.693" transform="matrix(-0.554, -0.832, 0.832, -0.554, 196.919, 36.342)"/><rect class="l" width="5.23" height="26.693" transform="translate(372.339 78.107) rotate(-65.251)"/><circle class="l" cx="12.986" cy="12.986" r="12.986" transform="translate(572.465 18.365) rotate(-45)"/><g transform="translate(411.613 161.799)"><line class="j" y1="15.134" x2="15.134"/><line class="j" x2="15.134" y2="15.134"/></g></g><g transform="translate(37.106 288.181)"><path class="e" d="M315.829,386.006s23.2-2.783,72.855-2.641l-2.886,29.48Z" transform="translate(-196.119 -299.14)"/><path class="m" d="M475.2,377.712a16.785,16.785,0,0,0-5.48.986V341.69H432a15.345,15.345,0,0,1,1.68,7.164,16.957,16.957,0,1,1-33.913,0,15.378,15.378,0,0,1,1.679-7.164H363.838V447.568H469.716V410.654a16.768,16.768,0,0,0,5.478.984,16.963,16.963,0,1,0,0-33.927Z" transform="translate(-178.767 -314.201)"/><g transform="translate(5.931)"><path class="n" d="M249.591,423.539c-16.232-13.888-26.693-41.3-5.231-62.766s55.131-7.936,76.893-19.84,57.415-28.857,75.752-12.985,9.319,38.6-.963,46.533-44.493,24.288-44.493,24.288l-30.3,32.345Z" transform="translate(-232.255 -321.498)"/><path class="o" d="M310.831,399.126l12.818-27.045s-15.613-3.114-8.548-18.265c5.757-12.348,14.669-.361,20.921.6s18.156-6.253,22.726-14.669c0,0,3.487,12.144,11.3,15.391,0,0,3.006,18.036-3.488,26.574s-16.352,13.422-29.458,7.733l-5.771,17.637Z" transform="translate(-203.856 -314.902)"/><g transform="translate(127.053 51.623)"><path class="p" d="M344.337,368.8a9.379,9.379,0,1,0-9.379,9.377A9.379,9.379,0,0,0,344.337,368.8Z" transform="translate(-325.579 -359.417)"/><path class="p" d="M355.759,364.478a9.364,9.364,0,0,0-8.011,14.238,29.29,29.29,0,0,0,5.966-5.941,20.156,20.156,0,0,0,3.372-8.192A9.474,9.474,0,0,0,355.759,364.478Z" transform="translate(-318.061 -357.588)"/></g><g transform="translate(115.933 41.211)"><g transform="translate(0 0.289)"><path class="j" d="M317.411,351.981a14.031,14.031,0,0,0,8.056,1.684" transform="translate(-317.411 -351.981)"/><path class="j" d="M320.326,359.364a12,12,0,0,1,0-6.35" transform="translate(-316.518 -351.608)"/></g><path class="j" d="M346.365,354.057s.722,6.672,3.668,9.559c0,0-1.8,1.984-5.772.662" transform="translate(-307.707 -350.941)"/><path class="j" d="M334.214,352.449s6.268-2.479,9.514,2.03" transform="translate(-311.338 -351.768)"/><path class="j" d="M349.085,355.228s3.922-2.931,6.448,1.037" transform="translate(-305.963 -350.895)"/></g><path class="q" d="M323.328,371.9s1.069,7.552,7.338,11.8l1.921-5.87C325.619,375.043,323.328,371.9,323.328,371.9Z" transform="translate(-199.339 -303.282)"/><path class="r" d="M331.333,393.139l3.03-9.262c-9.61-2.973-16.622-4.708-20.285-5.546l-3.247,6.851Z" transform="translate(-203.856 -300.958)"/></g><g transform="translate(0 74.544)"><path class="o" d="M431.215,425.228c0-2.765-12.626-1.2-12.626-1.2s16.834-3.126,16.954-6.373c.1-2.7-12.144-.916-16.3-.234,4.431-.781,18.127-3.417,18.228-6.139.1-2.569-11.7-1.073-16.63-.336,4.34-.727,13.886-2.574,14.166-4.8.361-2.885-19.75-1.894-19.75-1.894s8.928-8.115,7.305-10.641-16.593,8.207-16.593,8.207-47.2-10.058-87.094-18.449h0l-21.244,32.486,9.695,16.353h81.327C408.249,432.2,431.215,427.993,431.215,425.228Z" transform="translate(-202.697 -373.683)"/><path class="e" d="M344.072,385.933c-14.193-2.984-27.464-5.759-37.355-7.794-37.7-7.756-79,9.379-78.818,33.728s27.776,22.906,49.6,22.906h55.024A406.739,406.739,0,0,0,344.072,385.933Z" transform="translate(-227.899 -376.253)"/></g></g><g transform="translate(334.856 98.069)"><g transform="translate(94.651 99.043)"><path class="s" d="M632.454,254.605h0l-19.414,6.972H589.454c-28.833,14.646-42.574,45.974-65.03,80.808l-8.3,136.353H670.516C694.366,326.843,670.434,263.97,632.454,254.605Z" transform="translate(-516.128 -254.605)"/><path class="t" d="M672.678,291.644c-2.6,6.094-4.666,14.285-5.936,25.155-8.15,69.786-93.069,110.658-148.274,110.094l-2.34,38.459H670.516C683.388,383.378,682.337,327.344,672.678,291.644Z" transform="translate(-516.128 -241.218)"/></g><g transform="translate(141.587)"><path class="d" d="M599.318,284.45c-20.176,2.8-40.641,8.117-46.954-11.543s6.313-29.038,7.214-53.387,15.244-41.843,38.915-36.792c13.7,2.922,20.536,12.831,23.867,20.661a37.833,37.833,0,0,0,11.021,14.966c5.747,4.573,12.539,13.044,12.951,27.679C647.054,271.645,633.106,279.761,599.318,284.45Z" transform="translate(-550.604 -181.855)"/><path class="u" d="M597.123,265.526a24.445,24.445,0,0,0,15.866-10.586,46.846,46.846,0,0,0-17.851-.743,79.163,79.163,0,0,0-25.151,7.715A44.1,44.1,0,0,0,597.123,265.526Z" transform="translate(-543.598 -155.897)"/><path class="u" d="M583.726,276.329l-2.165-20.472s-12.445,4.239-19.479-5.591.271-37.334,4.329-43.2c0,0,12.153.723,16.131,7.215s8.577,11.091,14.8,8.476,6.674-14.879,17.225-7.485-1.172,28.948-12.265,27.6l5.382,29.669S599.326,278.4,583.726,276.329Z" transform="translate(-547.516 -172.742)"/><g transform="translate(58.033 48.981)"><path class="j" d="M593.231,218.9s3.246-2.4,8.416,0" transform="translate(-593.231 -217.833)"/><path class="j" d="M595.527,224.614a23.824,23.824,0,0,0,1.082-6.781" transform="translate(-592.401 -217.833)"/></g><g transform="translate(14.927 51.191)"><path class="j" d="M570.7,219.457a22.677,22.677,0,0,1-1.443,8.478,15.808,15.808,0,0,0,4.328.421" transform="translate(-558.791 -219.457)"/><path class="j" d="M561.568,221.494a6.33,6.33,0,0,1,7.274-.722" transform="translate(-561.568 -219.269)"/><path class="j" d="M574.659,220.786a10.1,10.1,0,0,1,9.6.376" transform="translate(-556.837 -219.35)"/></g><g transform="translate(11.637 60.124)"><path class="v" d="M590.568,233.894a7.876,7.876,0,1,0-7.876,7.876A7.876,7.876,0,0,0,590.568,233.894Z" transform="translate(-553.49 -226.018)"/><path class="v" d="M561.487,226.222a7.843,7.843,0,0,0-2.166.309c-.46,5.962-.038,11.607,1.935,15.43.078,0,.154.012.231.012a7.876,7.876,0,0,0,0-15.752Z" transform="translate(-559.151 -225.944)"/></g></g><g transform="translate(0 110.997)"><path class="m" d="M574.9,263.386H469.02v37a16.716,16.716,0,0,0-5.452-.98,16.963,16.963,0,1,0,0,33.925,16.731,16.731,0,0,0,5.452-.979v36.909H506a28.607,28.607,0,0,0-1.278,7.165A17.225,17.225,0,0,0,521.976,393.4c9.369,0,16.792-6.856,16.792-16.225,0-1.929-.219-6.185-.811-7.913H574.9Z" transform="translate(-446.604 -263.386)"/><path class="e" d="M468.452,377.2a16.965,16.965,0,1,1-5.4,32.955l.084,37.006h0v.339H568.99l-.223-106.46-37.717.087a15.437,15.437,0,0,1,1.807,7.158,17.012,17.012,0,1,1-34.023.079A16.857,16.857,0,0,1,500.5,341.2l-37.605.087.084,36.915A16.768,16.768,0,0,1,468.452,377.2Z" transform="translate(-440.718 -235.321)"/><g transform="translate(59.297 10.634)"><path class="u" d="M666.916,320.318l-34.3,2.734h0c-3.634,15.1-8.991,30.929-18.127,45.6-30.541,49.059-87.655,34.509-87.655,34.509s-5.171-12.987-8.055-12.385-2.045,11.422-2.045,11.422-20.321-5.891-21.162-2.4,18.638,9.258,18.638,9.258-23.687-2.885-24.048.361,23.566,7.455,23.566,7.455-20.681-1.924-20.56,1.443,22.123,5.651,22.123,5.651-15.871-.12-15.63,3.006,24.168,1.8,24.168,1.8,69.018,2.886,120.721-19.238c31.539-13.5,40.761-44.306,42.166-73.4Z" transform="translate(-490.159 -253.443)"/><path class="s" d="M617.795,271.458c-15.5,2.682-14.483,33.977-23,69.347a357.293,357.293,0,0,0,54.1,13.087c.9-18.6-1.39-36.5-3.115-48.722C644.495,296.043,636.551,268.213,617.795,271.458Z" transform="translate(-452.34 -271.197)"/></g></g></g></g></g></svg>